<svg width="231" height="72" viewBox="0 0 231 72" fill="none" xmlns="http://www.w3.org/2000/svg">
<path d="M230.538 71.7237C155.583 71.7237 80.6283 71.6215 5.67343 71.6215C3.93505 71.6215 2.29893 71.7237 0.560547 71.7237C0.560547 48.5112 0.560547 25.401 0.560547 2.18851C2.19667 1.16594 3.11699 2.08626 4.03731 3.31335C3.93505 13.2323 4.24182 23.0491 3.83279 32.8658C3.52602 40.3306 4.13957 41.2509 11.3999 42.7848C14.2631 43.3983 16.5127 44.5232 17.3308 47.4887C17.5353 48.1022 17.8421 48.7157 18.1489 49.3293C20.194 52.6015 23.773 54.2377 26.8408 52.9083C30.113 51.4767 31.2378 48.7157 30.3175 45.3412C29.4995 42.069 26.0227 39.8193 22.2392 40.9442C17.8421 42.2735 14.2631 40.9442 10.4795 39.2058C3.42376 35.9335 2.81022 34.6042 5.67343 27.5484C9.15019 19.2655 11.8089 10.6759 15.8992 2.59755C21.1143 0.756909 26.534 1.77948 31.9536 1.77948C38.0891 4.74495 44.7359 6.38108 51.1781 8.42623C56.5977 10.1646 53.53 5.05173 54.7571 3.4156C55.0639 2.29077 55.7797 1.67723 56.8023 1.16594C89.627 1.06368 122.349 1.06368 155.174 0.961426C180.33 0.961426 205.485 0.961426 230.64 0.961426C230.538 24.6852 230.538 48.2045 230.538 71.7237Z" fill="#273F8F"/>
<path d="M57.5098 1.08253C57.2031 1.79833 56.0867 2.69957 55.78 3.41537C48.0084 6.27858 40.2368 4.84698 32.4652 3.51763C26.9433 1.06345 21.4214 2.18828 15.8995 3.41537C11.9114 5.56278 7.92338 5.56278 3.93533 3.41537C2.8105 3.00634 1.78792 2.69957 0.663086 2.29054C0.663086 1.98376 0.663086 1.57473 0.663086 1.26796C19.3762 1.26796 38.7967 0.980271 57.5098 1.08253Z" fill="#273F8F"/>
<path d="M172.251 25.8124C172.251 32.9833 172.321 46.0854 172.345 50.4961C172.35 51.3246 171.679 51.9904 170.851 51.9904H163.622C162.797 51.9904 162.128 51.3219 162.128 50.4967C162.128 49.7172 162.128 48.804 162.128 48.2068C162.435 34.6066 162.332 21.0063 162.128 7.30377C162.128 4.44056 163.048 3.62249 165.911 3.41798C171.331 3.00895 175.115 4.13378 177.364 9.86021C179.716 15.7912 183.091 21.3131 186.568 27.9598C186.568 20.6995 186.772 14.2573 186.465 7.81506C186.261 3.92927 187.795 3.21346 191.169 3.41798C194.135 3.62249 196.691 3.11121 196.589 7.7128C196.282 20.6995 196.589 33.584 196.384 46.5707C196.384 47.1994 196.384 48.0069 196.384 48.7978C196.384 50.4481 195.046 51.7859 193.396 51.7859H186.672C185.457 51.7859 184.367 51.0584 183.903 49.9352C182.032 45.4005 177.147 33.7019 174.297 28.1643C173.785 27.3463 173.785 25.8124 172.251 25.8124Z" fill="#FDFDFD"/>
<path d="M137.69 27.1394C137.894 32.7636 137.076 37.9787 134.418 42.6826C131.043 49.0226 125.93 52.7039 118.465 52.6016C111.001 52.4993 105.888 48.6135 102.82 42.1713C98.3206 32.5591 98.5251 22.6401 103.024 13.1301C106.092 6.58564 111.41 3.10889 118.874 3.10889C126.135 3.10889 131.043 6.58565 134.52 12.7211C137.076 17.2204 137.792 22.2311 137.69 27.1394Z" fill="#FEFEFE"/>
<path d="M63.0421 27.548C63.0421 20.9013 63.1444 14.2545 62.9399 7.6078C62.8376 4.64233 63.5534 3.31298 66.8257 3.51749C72.9611 3.92652 79.0966 3.10846 85.1298 4.13104C92.7991 5.35813 97.1962 11.2891 96.8894 19.981C96.5826 28.1616 91.572 33.5812 83.8004 34.1948C75.313 34.8083 75.313 34.8083 75.313 43.398C75.313 43.5217 75.313 46.722 75.313 49.2324C75.313 50.8827 73.9752 52.2192 72.325 52.2192H65.9279C64.2777 52.2192 62.9399 50.8811 62.9399 49.2309C62.9399 48.9396 62.9399 48.6595 62.9399 48.4086C63.0421 41.5573 63.0421 34.5016 63.0421 27.548Z" fill="white"/>
<path d="M208.144 33.8907C208.144 29.0846 208.246 15.3821 208.246 15.3821H202.951C201.301 15.3821 199.963 14.0443 199.963 12.394V6.61507C199.963 4.96308 201.303 3.62456 202.955 3.62703L224.945 3.65985C226.614 3.66234 227.958 5.03049 227.942 6.69933C227.926 8.3352 227.913 10.4003 227.926 12.2889C227.938 13.98 226.578 15.3821 224.887 15.3821H219.699L219.886 49.0879C219.896 50.7446 218.555 52.0926 216.898 52.0926H213.768H211.052C209.393 52.0926 208.051 50.7461 208.063 49.0871C208.093 44.8095 208.144 37.126 208.144 33.8907Z" fill="#FDFDFD"/>
<path d="M155.173 27.7511C155.173 34.5001 155.07 41.3514 155.275 48.1004C155.377 51.2704 154.252 52.1907 151.185 52.0884C141.061 51.7817 143.004 52.9065 143.004 44.2146C142.902 32.1482 143.106 20.0818 142.902 8.11764C142.799 4.43637 144.027 3.51605 147.503 3.6183C156.604 3.92508 155.07 2.59572 155.173 11.0831C155.275 16.605 155.173 22.1269 155.173 27.7511Z" fill="#FCFCFC"/>
<path d="M3.07051 3.31348C3.07051 3.31348 11.9111 3.31348 15.8991 3.31348C16.8194 5.35863 15.4901 6.99476 14.8765 8.63088C11.8088 16.1979 8.84334 23.765 5.67335 31.3321C4.75303 33.684 4.344 35.3201 7.51399 36.2404C10.0704 37.0585 12.5246 38.3879 14.8765 39.7172C16.8194 40.7398 18.3533 40.9443 20.5007 39.9217C25.3068 37.7743 30.8287 40.3307 32.1581 44.8301C33.2829 48.8181 30.931 53.3175 26.9429 54.6468C22.5459 56.0784 16.7172 53.0107 16.1036 48.1023C15.5923 44.3188 13.2404 44.5233 10.7862 44.1143C7.3086 43.5652 3.01465 43.6314 3.01465 43.6314C3.01465 43.6314 3.01465 39.5011 3.01465 35.3201C3.01465 26.4237 3.01465 8.73314 3.01465 8.73314L3.07051 3.31348Z" fill="#FBFBFC"/>
<path d="M39.5202 68.7584C50.7685 59.0439 54.0408 48.9204 49.6437 39.5127C45.3489 30.3095 36.4525 25.9125 24.9996 27.4463C24.6942 25.9955 26.1459 22.44 26.9009 20.7319C27.1586 20.1489 27.7381 19.8076 28.358 19.956C28.8428 20.0721 29.5175 20.2672 30.4193 20.5951C36.5547 22.7425 42.6902 24.3786 48.8256 26.4237C51.5866 27.3441 54.2453 28.5712 55.9837 24.5831C55.9837 38.4901 55.9837 52.2949 55.9837 66.202C55.9837 68.1449 55.9837 68.9629 55.9837 68.9629C55.9837 68.9629 44.5308 68.7584 39.5202 68.7584Z" fill="#FCFCFB"/>
<path d="M32.3613 3.41573C40.1329 3.41573 56.0542 3.31348 56.0542 3.31348V6.17206V10.3724C56.0542 10.3724 52.1555 10.2301 49.8474 9.44894C44.121 7.50604 37.8832 6.58572 32.3613 3.41573Z" fill="white"/>
<path d="M3.32129 59.3511C6.73977 65.1816 15.1004 68.5743 15.1004 68.5743H3.32129C3.32129 68.5743 3.32126 64.0911 3.32129 59.3511Z" fill="#EEECF3"/>
<path d="M124.601 27.8547C124.294 31.2292 124.703 34.7059 123.476 37.9782C122.658 40.3301 121.124 41.7617 118.67 41.6595C116.318 41.5572 114.886 39.9211 114.375 37.8759C112.534 31.2292 112.432 24.3779 114.477 17.7312C115.193 15.5838 116.624 13.7431 119.283 13.8454C121.635 13.9476 122.76 15.5838 123.578 17.6289C124.805 21.0034 124.396 24.4802 124.601 27.8547Z" fill="#273F8F"/>
<path d="M75.3103 18.6534C75.0035 16.3014 75.1058 14.154 79.0938 14.5631C82.2638 14.8698 84.9225 15.4834 84.8203 19.4714C84.718 23.3572 82.0593 23.7662 78.8893 24.073C74.39 24.3798 75.3103 21.5166 75.3103 18.6534Z" fill="#273F8F"/>
<path d="M63.9863 58.0796H67.1121C67.633 58.0796 68.1037 58.139 68.5241 58.2578C68.9445 58.3766 69.301 58.5502 69.5934 58.7787C69.8951 59.0072 70.1235 59.286 70.2789 59.615C70.4434 59.9349 70.5257 60.305 70.5257 60.7255C70.5257 61.2281 70.4297 61.6623 70.2378 62.0278C70.0459 62.3934 69.7854 62.6996 69.4564 62.9464C69.1365 63.184 68.7572 63.3622 68.3185 63.481C67.8889 63.5907 67.4319 63.6455 66.9475 63.6455H66.0701V66.7164H63.9863V58.0796ZM66.0701 62.069H66.8242C67.0252 62.069 67.2217 62.0461 67.4137 62.0004C67.6056 61.9547 67.7701 61.8862 67.9072 61.7948C68.0534 61.6942 68.1677 61.5663 68.2499 61.4109C68.3413 61.2555 68.387 61.0636 68.387 60.8351C68.387 60.4421 68.2499 60.1451 67.9757 59.944C67.7107 59.7429 67.3543 59.6424 66.9064 59.6424H66.0701V62.069Z" fill="#FEFEFE"/>
<path d="M86.2399 58.0796H89.6672C90.1608 58.0796 90.5949 58.1527 90.9696 58.2989C91.3535 58.436 91.6688 58.6279 91.9156 58.8747C92.1715 59.1215 92.3634 59.4094 92.4914 59.7384C92.6193 60.0674 92.6833 60.4193 92.6833 60.794C92.6833 61.1504 92.6284 61.4658 92.5188 61.7399C92.4182 62.005 92.2857 62.238 92.1212 62.4391C91.9567 62.6402 91.7785 62.8047 91.5865 62.9327C91.3946 63.0606 91.2164 63.1611 91.0519 63.2343L93.122 66.7164H90.7228L89.1874 63.6044H88.3237V66.7164H86.2399V58.0796ZM88.3237 62.0278H88.9543C89.4296 62.0278 89.8135 61.9319 90.1059 61.7399C90.3984 61.548 90.5446 61.2373 90.5446 60.8077C90.5446 60.4513 90.4258 60.1679 90.1882 59.9577C89.9506 59.7475 89.6078 59.6424 89.16 59.6424H88.3237V62.0278Z" fill="#FEFEFE"/>
<path d="M112.617 57.915C113.238 57.915 113.814 58.0201 114.344 58.2304C114.874 58.4314 115.331 58.7239 115.715 59.1078C116.099 59.4916 116.396 59.9623 116.606 60.5198C116.826 61.0773 116.935 61.708 116.935 62.4117C116.935 63.0972 116.821 63.7141 116.592 64.2625C116.373 64.8108 116.067 65.2815 115.674 65.6745C115.29 66.0584 114.829 66.3554 114.289 66.5656C113.759 66.7667 113.183 66.8672 112.562 66.8672C111.94 66.8672 111.365 66.7667 110.835 66.5656C110.304 66.3646 109.847 66.0767 109.464 65.7019C109.08 65.3181 108.778 64.852 108.559 64.3036C108.349 63.7461 108.243 63.1154 108.243 62.4117C108.243 61.7262 108.353 61.1093 108.573 60.5609C108.792 60.0034 109.098 59.5282 109.491 59.1352C109.884 58.7422 110.346 58.4406 110.876 58.2304C111.415 58.0201 111.995 57.915 112.617 57.915ZM110.437 62.4117C110.437 62.8961 110.492 63.3211 110.601 63.6867C110.72 64.0522 110.88 64.3539 111.081 64.5915C111.282 64.8291 111.511 65.0073 111.767 65.1261C112.032 65.245 112.315 65.3044 112.617 65.3044C112.909 65.3044 113.183 65.245 113.439 65.1261C113.704 65.0073 113.933 64.8291 114.125 64.5915C114.317 64.3539 114.468 64.0522 114.577 63.6867C114.687 63.3211 114.742 62.8961 114.742 62.4117C114.742 61.909 114.682 61.4749 114.563 61.1093C114.454 60.7346 114.298 60.4284 114.097 60.1908C113.896 59.9532 113.663 59.7749 113.398 59.6561C113.142 59.5373 112.864 59.4779 112.562 59.4779C112.269 59.4779 111.991 59.5419 111.726 59.6698C111.47 59.7886 111.246 59.9714 111.054 60.2182C110.862 60.465 110.711 60.7711 110.601 61.1367C110.492 61.5023 110.437 61.9273 110.437 62.4117Z" fill="#FEFEFE"/>
<path d="M134.763 58.0796V65.1399C134.763 65.5146 134.75 65.8527 134.722 66.1543C134.704 66.4468 134.663 66.7119 134.599 66.9495C134.544 67.1963 134.462 67.4202 134.352 67.6212C134.251 67.8223 134.123 68.0097 133.968 68.1833C133.648 68.5306 133.255 68.7728 132.789 68.9099C132.332 69.047 131.839 69.1156 131.308 69.1156V67.539C131.537 67.539 131.729 67.5024 131.884 67.4293C132.049 67.3653 132.181 67.2877 132.282 67.1963C132.446 67.0592 132.551 66.8764 132.597 66.6479C132.652 66.4194 132.679 66.1589 132.679 65.8665V58.0796H134.763Z" fill="#FEFEFE"/>
<path d="M150.966 58.0796H156.724V59.6698H153.049V61.4383H156.367V63.0149H153.049V65.1261H156.765V66.7164H150.966V58.0796Z" fill="#FEFEFE"/>
<path d="M176.898 65.2769C177.309 65.2769 177.656 65.2404 177.939 65.1673C178.223 65.0942 178.46 64.9982 178.652 64.8794L179.064 66.3737C178.881 66.4834 178.584 66.593 178.173 66.7027C177.77 66.8124 177.272 66.8672 176.678 66.8672C176.002 66.8672 175.38 66.7621 174.814 66.5519C174.247 66.3417 173.763 66.0447 173.361 65.6608C172.958 65.2678 172.643 64.7971 172.415 64.2488C172.195 63.6912 172.086 63.0697 172.086 62.3843C172.086 61.7171 172.191 61.1093 172.401 60.5609C172.62 60.0034 172.926 59.5327 173.319 59.1489C173.722 58.7559 174.206 58.4543 174.773 58.2441C175.348 58.0247 175.993 57.915 176.706 57.915C177.309 57.915 177.798 57.9744 178.173 58.0933C178.556 58.2029 178.858 58.3172 179.077 58.436L178.611 59.9577C178.401 59.8389 178.15 59.7338 177.857 59.6424C177.574 59.551 177.259 59.5053 176.911 59.5053C176.546 59.5053 176.203 59.5602 175.883 59.6698C175.563 59.7704 175.284 59.9349 175.047 60.1634C174.809 60.3919 174.622 60.6889 174.485 61.0545C174.348 61.4109 174.279 61.8496 174.279 62.3706C174.279 62.855 174.343 63.28 174.471 63.6455C174.608 64.0111 174.795 64.3173 175.033 64.5641C175.271 64.8017 175.545 64.9799 175.856 65.0987C176.176 65.2175 176.523 65.2769 176.898 65.2769Z" fill="#FEFEFE"/>
<path d="M200.714 58.0796V59.6973H198.356V66.7164H196.272V59.6973H193.969V58.0796H200.714Z" fill="#FEFEFE"/>
<path d="M219.053 57.915C219.656 57.915 220.177 57.979 220.616 58.107C221.055 58.2258 221.434 58.372 221.754 58.5457L221.288 60.0674C220.931 59.8846 220.57 59.743 220.205 59.6424C219.848 59.5327 219.506 59.4779 219.177 59.4779C218.756 59.4779 218.436 59.5556 218.217 59.711C217.998 59.8663 217.888 60.072 217.888 60.3279C217.888 60.6203 217.993 60.8351 218.203 60.9722C218.413 61.1002 218.738 61.2373 219.177 61.3835L219.985 61.644C220.305 61.7537 220.602 61.8907 220.877 62.0553C221.151 62.2106 221.384 62.3934 221.576 62.6036C221.777 62.8138 221.932 63.0515 222.042 63.3165C222.152 63.5816 222.206 63.8695 222.206 64.1802C222.206 64.5458 222.138 64.8931 222.001 65.2221C221.864 65.542 221.653 65.8253 221.37 66.0721C221.096 66.3189 220.744 66.5154 220.314 66.6616C219.894 66.7987 219.396 66.8672 218.82 66.8672C218.281 66.8672 217.765 66.8124 217.271 66.7027C216.787 66.5839 216.339 66.4194 215.927 66.2092L216.394 64.6874C216.787 64.8794 217.17 65.0302 217.545 65.1399C217.92 65.2495 218.313 65.3044 218.724 65.3044C219.209 65.3044 219.556 65.2267 219.766 65.0713C219.985 64.9068 220.095 64.6874 220.095 64.4133C220.095 64.3219 220.077 64.2305 220.04 64.1391C220.004 64.0477 219.931 63.9563 219.821 63.8649C219.72 63.7735 219.574 63.6867 219.382 63.6044C219.199 63.513 218.962 63.4216 218.669 63.3302L217.998 63.0972C217.678 62.9784 217.381 62.8458 217.107 62.6996C216.832 62.5534 216.595 62.3797 216.394 62.1786C216.202 61.9776 216.051 61.7445 215.941 61.4795C215.832 61.2144 215.777 60.8991 215.777 60.5335C215.777 60.1588 215.845 59.8115 215.982 59.4916C216.129 59.1717 216.339 58.8975 216.613 58.6691C216.896 58.4314 217.239 58.2486 217.641 58.1207C218.052 57.9836 218.523 57.915 219.053 57.915Z" fill="#FEFEFE"/>
</svg>
