<svg width="228" height="35" viewBox="0 0 228 35" fill="none" xmlns="http://www.w3.org/2000/svg">
<g clip-path="url(#clip0_10440_45229)">
<path d="M19.8645 34.3628C13.4855 34.3628 7.10651 34.3628 0.72753 34.3628C0.295722 34.3628 -0.136085 34.4208 0.0405632 33.7833C1.35561 26.1923 3.31838 18.7558 4.94747 11.242C5.61481 8.17078 6.30178 5.09959 7.00837 2.0284C7.10651 1.62278 7.14576 1.19783 7.3813 0.830833C7.45981 0.753571 7.55794 0.676308 7.65608 0.618361C7.9505 0.270679 8.36268 0.212732 8.79449 0.212732C14.565 0.212732 20.3159 0.212732 26.0864 0.212732C26.5575 0.212732 27.0089 0.212732 27.3033 0.656992C27.5781 1.08194 27.4211 1.5262 27.323 1.95114C26.5182 5.54385 25.7331 9.15588 24.9284 12.8259C26.3416 11.9373 27.3818 10.7398 28.5203 9.69672C31.4055 7.08911 34.3104 4.53944 37.1368 1.87388C37.7256 1.31372 38.3144 0.772886 39.1192 0.502467C39.6295 0.212732 40.1791 0.212732 40.7286 0.212732C47.2254 0.232048 53.7221 0.212732 60.2385 0.232048C60.3563 0.193416 60.4544 0.174101 60.5722 0.154785C60.9451 0.270679 61.0629 0.541098 61.0432 0.88878C60.7881 1.68072 60.0422 2.06704 59.473 2.54993C54.0754 7.08911 48.7367 11.7055 43.2999 16.2254C42.3381 17.0367 42.3185 17.1526 43.1821 18.1183C46.7347 22.136 50.2677 26.173 53.781 30.2293C54.7428 31.3303 55.7045 32.4119 56.6663 33.5129C56.8822 33.764 57.2551 33.9572 57.1373 34.3821C48.8937 34.3821 40.6501 34.3821 32.4065 34.3821C31.6803 33.8606 31.2681 33.0687 30.7578 32.3733C28.3632 29.1283 26.0275 25.8446 23.5937 22.6189C23.3582 22.3098 23.1227 22.0008 22.946 21.5372C22.1216 25.3617 21.258 29.0896 20.4729 32.8176C20.3748 33.3391 20.3552 33.9379 19.8645 34.3628Z" fill="#214874"/>
<path d="M190.938 0.0193157C202.636 0.0193157 214.354 0.0386313 226.052 0C226.876 0 227.21 0.173841 227.033 0.985098C226.602 3.49613 226.032 5.96854 225.424 8.44094C225.326 8.86589 225.267 9.34878 224.717 9.48399C220.38 9.59988 216.042 9.5033 211.704 9.54193C211.214 9.54193 210.723 9.5033 210.252 9.65783C209.094 9.8703 208.485 10.7202 208.623 11.9178C208.662 12.2461 208.819 12.362 209.113 12.42C209.447 12.4586 209.761 12.4586 210.095 12.4586C214.119 12.4586 218.123 12.4586 222.146 12.4586C222.48 12.4586 222.794 12.4586 223.128 12.4586C224.227 12.5165 224.482 12.8449 224.246 13.9459C223.834 15.8582 223.402 17.7704 222.951 19.6827C222.794 20.3587 222.814 21.112 222.225 21.6335C221.754 21.9426 221.224 21.8846 220.713 21.8846C216.415 21.8846 212.116 21.8846 207.818 21.8846C207.406 21.8846 206.974 21.8074 206.581 22.0778C205.953 22.6573 206.012 23.4878 205.855 24.2218C205.757 24.6661 206.091 24.7627 206.464 24.782C206.994 24.8013 207.504 24.782 208.034 24.8013C211.92 24.8013 215.806 24.8013 219.693 24.8013C220.085 24.8013 220.478 24.782 220.87 24.8592C221.381 24.9365 221.675 25.2456 221.577 25.7285C220.988 28.3554 220.576 31.0209 219.732 33.6092C219.693 33.7058 219.614 33.7638 219.555 33.841C219.261 34.1887 218.868 34.1694 218.476 34.1694C207.111 34.1694 195.747 34.1694 184.383 34.1694C183.794 34.1694 183.342 34.0535 183.225 33.4161C183.146 31.9867 183.676 30.6346 183.99 29.2825C186.051 19.9531 188.23 10.6236 190.349 1.29415C190.448 0.830573 190.526 0.347682 190.938 0.0193157Z" fill="#214874"/>
<path d="M120.946 32.6815C118.454 25.5734 115.961 18.4652 113.468 11.357C112.271 7.91885 111.093 4.48067 109.837 1.0618C109.68 0.656166 109.621 0.153959 109.013 0.115328C103.89 0.115328 98.7672 0.115328 93.6443 0.115328C91.6031 0.115328 89.5422 0.115328 87.5009 0.115328C86.8924 0.0380652 86.5588 0.405063 86.2055 0.830007C81.2986 6.83718 76.3917 12.8637 71.4651 18.8708C67.5003 23.6997 63.5748 28.548 59.61 33.3769C59.3941 33.6473 58.9623 33.8984 59.2567 34.362C63.5159 34.362 67.7555 34.362 72.0147 34.362C72.3091 34.1881 72.6428 34.2654 72.9568 34.2654C75.6066 34.2654 78.2759 34.2654 80.9256 34.2654C81.3771 34.2461 81.593 33.9177 81.8285 33.5894C82.2407 33.0099 82.7118 32.4497 83.0062 31.8123C83.5754 30.6148 84.5567 30.2284 85.7737 30.2284C89.817 30.1705 93.8799 30.2091 97.9232 30.2091C98.5709 30.2091 98.8653 30.5375 98.9438 31.117C99.0616 31.8896 99.2186 32.6429 99.3756 33.3962C99.4541 33.7825 99.5326 34.1688 100.023 34.2654C104.224 34.2654 108.404 34.2654 112.605 34.2654C115.352 34.2654 118.081 34.2654 120.829 34.2654C121.692 33.7825 121.123 33.1837 120.946 32.6815ZM96.2352 22.0193C93.7228 21.9613 91.2105 22 88.5019 22C90.7591 18.4845 92.9181 15.1429 95.2146 11.5888C95.4893 13.0955 95.7445 14.351 95.9604 15.6258C96.2941 17.4608 96.5885 19.2958 96.9221 21.1114C97.0399 21.7102 97.0399 22.0386 96.2352 22.0193Z" fill="#214874"/>
<path d="M140.69 0.192383C143.85 0.192383 147.01 0.192383 150.17 0.192383C152.702 3.39878 155.234 6.6245 157.766 9.85021C159.67 12.284 161.574 14.7371 163.596 17.3254C164.891 11.492 166.147 5.85187 167.423 0.211698C173.822 0.211698 180.24 0.211698 186.638 0.211698C185.971 3.18631 185.343 6.16092 184.656 9.13553C182.752 17.422 180.848 25.7084 178.944 33.9948C178.571 34.2652 178.12 34.1879 177.708 34.1879C172.134 34.1879 166.54 34.1879 160.966 34.1879C160.534 34.1879 160.122 34.2073 159.69 34.2266C155.372 29.0307 151.034 23.8348 146.716 18.6582C146.539 18.4457 146.343 18.2332 146.049 17.8855C144.773 23.4098 143.517 28.7989 142.28 34.1879C136.294 34.1879 130.307 34.1879 124.321 34.1879C124.026 34.1879 123.732 34.2266 123.438 34.2266C123.83 31.7155 124.497 29.2818 125.047 26.8094C126.99 18.1366 128.972 9.44458 130.955 0.771853C130.994 0.578696 131.073 0.404855 131.132 0.231014C134.311 0.211698 137.51 0.192383 140.69 0.192383Z" fill="#214874"/>
</g>
<defs>
<clipPath id="clip0_10440_45229">
<rect width="227.092" height="34.3626" fill="white"/>
</clipPath>
</defs>
</svg>
