<svg width="236" height="64" viewBox="0 0 236 64" fill="none" xmlns="http://www.w3.org/2000/svg">
<g clip-path="url(#clip0_10440_45228)">
<path d="M118.502 52.389C80.0311 52.389 41.6285 52.389 3.15792 52.389C1.59463 52.389 1.59463 52.389 1.59463 50.7578C1.59463 44.7765 1.59463 38.7272 1.59463 32.7459C1.59463 30.9108 1.39072 31.0467 3.22589 31.0467C79.4874 31.0467 155.749 31.0467 232.01 31.0467C232.894 31.0467 233.778 31.0467 234.593 31.0467C235.341 31.0467 235.545 31.3186 235.545 31.9983C235.545 38.5233 235.545 44.9804 235.545 51.5054C235.545 52.1851 235.341 52.457 234.661 52.3211C234.389 52.3211 234.185 52.3211 233.913 52.3211C195.443 52.389 156.972 52.389 118.502 52.389Z" fill="#3282BE"/>
<path d="M74.7307 6.4408C76.7698 2.36265 80.3042 1.1392 84.3824 0.799354C87.9847 0.527477 91.3832 1.07123 94.8496 1.95483C95.3254 2.09077 95.5293 2.29468 95.5293 2.83843C95.5293 5.21735 95.4613 7.66425 95.5293 10.0432C95.5293 10.7229 95.2574 10.7908 94.7137 10.7229C93.0824 10.519 91.5191 10.451 89.8879 10.2471C88.5965 10.1111 87.305 10.383 86.0816 10.6549C85.6058 10.7908 85.13 11.0627 84.8582 11.4705C83.7706 13.1018 83.6347 14.869 84.3824 16.7042C85.0621 18.2674 86.4214 18.8792 88.0527 18.9471C90.2277 19.0831 92.3348 18.8112 94.4418 18.3354C95.1895 18.1315 95.4613 18.3354 95.4613 19.151C95.3934 21.1222 95.4613 23.1612 95.4613 25.1323C95.4613 25.6081 95.4613 26.0159 94.8496 26.1519C91.3832 27.0355 87.9168 27.7831 84.3144 27.5113C78.3331 27.0355 75.1385 24.1128 74.187 18.1995C73.8471 15.9565 73.7112 13.6455 73.9831 11.4026C74.051 10.5869 73.8471 10.315 72.9635 10.315C71.8081 10.315 70.6526 10.1791 69.4971 10.0432C68.6135 9.9752 68.2057 10.1111 68.2057 11.1986C68.2737 16.0245 68.2057 20.7823 68.2737 25.6081C68.2737 26.5597 68.0018 26.7636 67.1182 26.7636C64.6033 26.6956 62.1564 26.6956 59.6416 26.7636C58.69 26.7636 58.4861 26.4917 58.4861 25.6081C58.5541 20.7823 58.4861 15.8885 58.4861 11.0627C58.4861 10.1791 58.2822 9.90723 57.3986 9.9752C55.9712 10.0432 54.4759 10.0432 53.0486 9.9752C52.165 9.90723 52.029 10.2471 52.029 11.0627C52.097 13.3737 52.029 15.6846 52.029 17.9956C52.029 23.9089 49.854 26.4237 43.9407 27.2394C40.7461 27.6472 37.5516 27.6472 34.425 27.1034C29.871 26.2878 27.5601 23.637 27.4921 19.0151C27.4242 13.5096 27.4921 8.00409 27.4921 2.49858C27.4921 1.81889 27.696 1.54702 28.3757 1.54702C30.9586 1.61498 33.6094 1.61498 36.1922 1.54702C37.0078 1.54702 37.1438 1.88686 37.1438 2.56655C37.1438 7.25643 37.1438 11.9463 37.1438 16.6362C37.1438 17.3159 37.2117 18.0635 37.3477 18.7432C37.6195 20.3065 38.4352 20.9182 39.9985 20.8503C41.4258 20.7823 42.3094 19.8307 42.3774 18.3354C42.4454 13.1698 42.4454 8.00409 42.4454 2.83843C42.4454 1.88686 42.7172 1.61498 43.6688 1.61498C53.5923 1.68295 63.5838 1.68295 73.5073 1.61498C74.5268 1.61498 74.7987 1.88686 74.7307 2.83843C74.7307 3.85797 74.7307 5.14938 74.7307 6.4408Z" fill="#010101"/>
<path d="M0.984375 14.12C0.984375 10.2458 1.05234 6.43949 0.984375 2.56524C0.984375 1.5457 1.32422 1.3418 2.20782 1.3418C4.72268 1.40977 7.16958 1.40977 9.68444 1.3418C10.4321 1.3418 10.636 1.5457 10.636 2.29337C10.568 4.67229 10.636 6.98324 10.636 9.36216C10.636 10.0419 10.8399 10.3137 11.5196 10.3137C12.7431 10.2458 13.8985 10.2458 15.122 10.3137C15.8017 10.3137 16.0735 10.1098 16.0056 9.36216C16.0056 6.98324 16.0056 4.67229 16.0056 2.29337C16.0056 1.5457 16.2095 1.3418 16.9571 1.3418C19.54 1.40977 22.1908 1.40977 24.7736 1.3418C25.5213 1.3418 25.7252 1.5457 25.7252 2.29337C25.7252 10.0419 25.7252 17.7903 25.7252 25.5388C25.7252 26.2865 25.5892 26.6263 24.7056 26.6263C22.1228 26.5584 19.54 26.5584 17.0251 26.6263C16.2095 26.6263 15.9376 26.4224 16.0056 25.6068C16.0735 23.3638 16.0056 21.0529 16.0056 18.8099C16.0056 18.0622 15.8696 17.7903 15.054 17.7903C13.8306 17.8583 12.6751 17.8583 11.4516 17.7903C10.7719 17.7903 10.568 18.0622 10.568 18.7419C10.636 21.0529 10.568 23.3638 10.568 25.6748C10.568 26.4904 10.3641 26.6263 9.61647 26.6263C7.03364 26.5584 4.45081 26.5584 1.93594 26.6263C1.05234 26.6263 0.984375 26.2865 0.984375 25.5388C1.05234 21.7326 1.05234 17.9263 0.984375 14.12C1.05234 14.12 0.984375 14.12 0.984375 14.12Z" fill="#010101"/>
<path d="M96.6168 13.9849C96.6168 10.1786 96.6848 6.37233 96.6168 2.56605C96.6168 1.61449 96.8887 1.41058 97.7723 1.41058C100.219 1.47855 102.666 1.47855 105.113 1.41058C106.132 1.34261 106.336 1.75042 106.268 2.70199C106.2 4.87701 106.268 7.11999 106.2 9.29501C106.2 10.1106 106.336 10.5185 107.288 10.4505C108.375 10.3825 109.531 10.3825 110.618 10.4505C111.366 10.4505 111.706 10.3145 111.638 9.43095C111.57 7.05202 111.638 4.74107 111.57 2.36215C111.57 1.75042 111.706 1.47855 112.386 1.47855C115.036 1.54652 117.687 1.54652 120.338 1.47855C121.086 1.47855 121.222 1.75042 121.222 2.43012C121.222 10.1786 121.222 17.9951 121.222 25.7436C121.222 26.4912 121.018 26.6951 120.202 26.6951C117.619 26.6272 115.036 26.6272 112.522 26.6951C111.706 26.6951 111.57 26.4233 111.57 25.6756C111.638 23.4326 111.57 21.1217 111.638 18.8787C111.638 18.063 111.434 17.7912 110.618 17.8591C109.463 17.9271 108.307 17.9271 107.152 17.8591C106.336 17.7912 106.2 18.131 106.2 18.8787C106.268 21.1896 106.2 23.5006 106.2 25.8115C106.2 26.5592 105.997 26.6951 105.317 26.6951C102.734 26.6272 100.083 26.6272 97.5004 26.6951C96.6848 26.6951 96.5488 26.4233 96.5488 25.6756C96.6848 21.7334 96.6168 17.8591 96.6168 13.9849Z" fill="#010101"/>
<path d="M133.185 14.12C133.185 17.9263 133.185 21.7326 133.185 25.5388C133.185 26.2865 133.049 26.6263 132.165 26.6263C129.583 26.5584 126.932 26.5584 124.349 26.6263C123.669 26.6263 123.397 26.4904 123.397 25.7427C123.397 17.9263 123.397 10.1098 123.397 2.2254C123.397 1.61367 123.533 1.3418 124.213 1.3418C126.932 1.40977 129.583 1.40977 132.301 1.3418C133.049 1.3418 133.185 1.61367 133.185 2.29337C133.185 6.30355 133.185 10.1778 133.185 14.12Z" fill="#010101"/>
<path d="M179.335 48.6502C177.568 48.6502 175.801 48.7182 174.034 48.3783C171.995 47.9705 171.111 46.7471 171.383 44.776C171.383 44.64 171.383 44.3682 171.451 44.3002C172.402 43.8244 173.49 44.1643 174.51 44.0963C175.053 44.0283 175.325 44.3002 175.325 44.776C175.393 45.5236 175.937 45.5916 176.481 45.5916C178.52 45.5916 180.559 45.5916 182.598 45.5916C183.278 45.5916 183.753 45.4557 183.821 44.708C183.889 43.9603 183.549 43.6205 182.87 43.5525C181.986 43.4846 181.035 43.4166 180.151 43.3486C178.18 43.2807 176.277 43.2127 174.306 43.0767C172.946 43.0088 172.063 42.3971 171.723 41.0377C171.383 39.7463 171.315 38.3869 171.791 37.1634C172.199 36.0079 173.014 35.3283 174.374 35.1923C177.5 34.8525 180.627 34.8525 183.821 35.1243C185.996 35.3283 186.88 36.0759 187.288 37.7072C187.628 38.9986 187.288 39.3384 185.996 39.3384C185.453 39.3384 184.909 39.3384 184.365 39.3384C183.821 39.3384 183.413 39.4064 183.21 38.7267C183.074 38.2509 182.598 38.115 182.122 38.047C180.219 37.8431 178.316 37.9111 176.413 38.047C175.801 38.115 175.393 38.3189 175.393 39.0666C175.393 39.8142 175.869 40.0181 176.481 40.0861C178.656 40.1541 180.831 40.29 183.074 40.358C187.696 40.4939 187.899 41.9892 187.56 46.1354C187.424 47.8346 186.336 48.5143 184.569 48.6502C182.802 48.5822 181.103 48.6502 179.335 48.6502Z" fill="#FCFDFC"/>
<path d="M141.749 48.4442C139.642 48.4442 137.535 48.4442 135.428 48.4442C134.681 48.4442 134.341 48.3083 134.341 47.4247C134.409 43.6184 134.341 39.8121 134.341 36.0059C134.341 35.2582 134.545 34.9863 135.36 34.9863C139.642 34.9863 143.992 34.9863 148.275 34.9863C148.954 34.9863 149.294 35.1902 149.226 35.8699C149.158 36.2098 149.158 36.6176 149.226 36.9574C149.294 37.7731 148.954 38.0449 148.139 38.0449C145.216 37.977 142.361 38.0449 139.439 38.0449C138.623 38.0449 138.351 38.3168 138.351 39.1325C138.351 39.9481 138.623 40.084 139.371 40.084C142.021 40.016 144.672 40.152 147.323 40.0161C148.478 39.9481 148.682 40.4239 148.682 41.4434C148.682 42.395 148.614 43.0067 147.323 42.9387C144.74 42.8028 142.089 42.9387 139.506 42.8708C138.487 42.8708 138.419 43.2786 138.351 44.0942C138.283 45.0458 138.759 45.1137 139.506 45.1137C142.429 45.1137 145.284 45.1137 148.207 45.0458C149.09 45.0458 149.294 45.3176 149.294 46.2012C149.226 48.3083 149.294 48.3083 147.187 48.3083C145.42 48.4442 143.585 48.4442 141.749 48.4442Z" fill="#FCFDFD"/>
<path d="M68.749 40.4227C68.749 38.7235 68.749 37.2961 68.749 35.8688C68.749 35.257 68.9529 34.9852 69.5647 34.9852C72.6912 34.7813 72.6912 34.7813 72.6912 37.9078C72.6912 39.6071 72.6912 41.3063 72.7592 43.0055C72.8272 44.5688 73.0991 44.8407 74.6623 45.0446C76.4295 45.2485 78.1288 45.1806 79.896 45.1126C81.4593 45.0446 82.003 44.5009 82.003 42.9376C82.071 40.5586 82.071 38.2477 82.003 35.8688C82.003 35.1211 82.2069 34.9852 82.8866 34.9852C86.1491 34.9172 86.1491 34.8492 86.1491 38.0438C86.1491 40.4227 86.0812 42.7337 85.9452 45.1126C85.8093 46.6759 84.9257 47.9673 83.4304 48.1712C79.4202 48.7829 75.478 48.9189 71.4678 48.1712C70.0404 47.8993 69.2248 47.0837 68.9529 45.6563C68.6131 43.8212 68.817 41.986 68.749 40.4227Z" fill="#FDFEFD"/>
<path d="M104.027 48.4439C102.056 48.4439 100.153 48.4439 98.1816 48.4439C97.434 48.4439 97.1621 48.24 97.1621 47.4923C97.1621 43.618 97.1621 39.8118 97.1621 35.9375C97.1621 35.1899 97.434 35.0539 98.1137 35.0539C101.512 34.918 101.512 34.918 101.512 38.3844C101.512 40.2876 101.58 42.1907 101.512 44.0938C101.512 44.8415 101.716 45.1134 102.464 45.1134C104.911 45.0454 107.358 45.1134 109.804 45.1134C110.756 45.1134 111.096 45.3173 111.096 46.3368C110.96 48.9876 111.3 48.5118 108.921 48.5118C107.222 48.4439 105.658 48.4439 104.027 48.4439Z" fill="#FCFDFD"/>
<path d="M93.6926 41.5789C93.6926 43.55 93.6926 45.5211 93.6926 47.5602C93.6926 48.1719 93.4887 48.3758 92.877 48.4438C89.4785 48.6477 89.4785 48.6477 89.4785 45.1812C89.4785 42.1906 89.4785 39.132 89.4785 36.1413C89.4785 35.3257 89.6145 34.9179 90.566 34.9858C91.5856 35.0538 92.9449 34.714 93.5567 35.1898C94.2364 35.7335 93.6926 37.0929 93.7606 38.1124C93.6926 39.2679 93.6926 40.4234 93.6926 41.5789Z" fill="#FDFEFD"/>
<path fill-rule="evenodd" clip-rule="evenodd" d="M210.074 6.57078C210.066 7.25047 210.059 7.9327 210.059 8.61492C209.834 8.54018 209.754 8.40379 209.67 8.26225C209.602 8.14637 209.532 8.02702 209.379 7.93523C208.291 4.4688 205.98 2.22582 202.446 1.34222C198.504 0.322679 194.494 0.322679 190.619 1.27425C186.473 2.22582 184.026 5.01256 183.279 9.22665C182.939 11.0618 182.667 12.965 182.939 15.14C181.308 12.4892 178.997 12.0134 176.414 11.8774L171.928 11.6735C171.248 11.6056 170.636 11.2657 170.636 10.4501C170.636 9.70243 170.976 9.02274 171.86 8.8868C172.54 8.75086 173.287 8.68289 173.967 8.68289C174.364 8.68289 174.76 8.67911 175.157 8.67533C177.138 8.65645 179.11 8.63765 181.036 9.09071C181.851 9.22665 181.987 8.95477 181.987 8.20711C181.942 6.84772 181.957 5.48834 181.972 4.12896C181.98 3.44926 181.987 2.76957 181.987 2.08988C181.987 1.61409 181.851 1.41019 181.308 1.34222C177.161 0.798464 173.015 0.322679 168.801 0.798464C164.179 1.34222 162.004 2.76957 160.917 7.39148C160.917 6.76104 160.909 6.15466 160.901 5.56684C160.886 4.44355 160.872 3.38801 160.917 2.36176C160.917 1.54612 160.781 1.27425 159.897 1.27425C157.518 1.34222 155.207 1.34222 152.828 1.27425C152.081 1.27425 151.877 1.47816 151.877 2.22582C151.968 3.76645 151.998 5.30709 152.028 6.84772C152.043 7.61804 152.058 8.38836 152.081 9.15868C152.149 10.9259 152.285 12.6931 152.557 14.4603C152.156 14.4031 152.093 14.1533 152.042 13.954C152.033 13.9165 152.024 13.8808 152.013 13.8486C150.993 10.8409 149.63 7.94798 148.266 5.05504C147.811 4.09073 147.357 3.12641 146.915 2.15785C146.643 1.61409 146.371 1.27425 145.624 1.27425H135.836C135.224 1.27425 135.021 1.41019 135.021 2.02191V25.7432C135.021 26.2869 135.156 26.4908 135.7 26.4908H143.313C143.924 26.4908 144.06 26.2869 144.06 25.6752C143.992 22.8885 143.992 20.0338 143.992 17.247C143.992 15.072 143.789 12.897 143.517 10.722C143.829 10.722 143.912 10.8941 143.976 11.0275C143.981 11.0393 143.987 11.0508 143.992 11.0618C145.167 14.7318 146.87 18.1904 148.568 21.6405C149.229 22.9827 149.889 24.3236 150.517 25.6752C150.789 26.2869 151.129 26.4908 151.809 26.4908C153.667 26.4455 155.525 26.4606 157.382 26.4757C158.311 26.4833 159.24 26.4908 160.169 26.4908C160.781 26.4908 160.985 26.3549 160.985 25.6752C160.94 24.7262 160.954 23.8072 160.97 22.8783C160.977 22.4101 160.985 21.9394 160.985 21.4611V11.6735C161.18 11.9671 161.271 12.2959 161.356 12.6093C161.39 12.7312 161.422 12.8507 161.461 12.965C161.936 15.2079 163.704 16.7712 165.947 16.9751C167.238 17.0431 168.461 17.1111 169.685 17.179L169.685 17.179C169.924 17.1961 170.167 17.2046 170.411 17.2131C171.14 17.2386 171.878 17.2644 172.54 17.5189C173.287 17.7908 173.831 18.3345 173.763 19.1502C173.695 19.8978 173.083 20.1697 172.336 20.2377C172.282 20.2453 172.229 20.253 172.177 20.2605C171.767 20.3201 171.398 20.3736 170.976 20.3736C168.801 20.4823 166.626 20.2431 164.451 20.0038C163.907 19.944 163.364 19.8842 162.82 19.8298C162.793 19.8254 162.766 19.8207 162.739 19.8159C162.352 19.7479 161.936 19.6749 161.936 20.3736V25.6072C161.936 26.083 162.14 26.219 162.616 26.2869C162.864 26.3179 163.111 26.349 163.358 26.3801C167.998 26.9638 172.583 27.5405 177.229 26.8307C179.948 26.4229 182.191 25.1994 183.075 22.3447C183.293 21.7348 183.399 21.097 183.518 20.3777C183.585 19.9746 183.657 19.5459 183.754 19.0822C184.774 23.2963 187.425 25.7432 191.231 26.6947C194.901 27.5783 198.64 27.5783 202.31 26.5588C205.776 25.5393 208.019 23.3642 209.107 19.9658C209.209 19.6259 209.311 19.3031 209.413 18.9802C209.515 18.6574 209.617 18.3345 209.719 17.9947C209.923 20.5094 209.923 23.0242 209.923 25.471V25.4713C209.923 26.151 209.991 26.4908 210.806 26.4908C213.117 26.4229 215.428 26.4229 217.739 26.4908C218.419 26.5588 218.623 26.3549 218.623 25.6752C218.598 24.3653 218.609 23.0553 218.62 21.7454C218.64 19.4529 218.66 17.1605 218.487 14.8681C218.416 14.1988 218.364 13.5113 218.311 12.8149C218.262 12.1677 218.212 11.5128 218.147 10.8579C218.419 10.9938 218.555 11.1298 218.623 11.3337C219.728 14.7947 221.242 18.0857 222.755 21.375C223.381 22.7368 224.007 24.0982 224.604 25.4713C224.944 26.219 225.352 26.6268 226.235 26.5588C227.595 26.5135 228.954 26.5286 230.313 26.5437C230.993 26.5512 231.673 26.5588 232.352 26.5588C234.867 26.5588 234.867 26.5588 234.867 24.1119V2.49769C234.867 2.40156 234.876 2.3033 234.884 2.20667C234.923 1.75676 234.959 1.34222 234.12 1.34222C232.536 1.38746 230.983 1.37247 229.42 1.35739C228.634 1.34982 227.846 1.34222 227.051 1.34222C226.507 1.34222 226.303 1.54612 226.303 2.15785C226.303 3.41528 226.32 4.65572 226.337 5.89616C226.354 7.13659 226.371 8.37703 226.371 9.63446C226.371 10.0756 226.397 10.5168 226.423 10.956C226.481 11.9377 226.538 12.9093 226.303 13.8486C225.157 10.4671 223.721 7.27893 222.28 4.08033C222.012 3.48562 221.744 2.89054 221.477 2.29379C221.205 1.68206 220.866 1.41019 220.118 1.41019C217.127 1.47816 214.137 1.47816 211.146 1.41019C210.194 1.41019 210.059 1.75003 210.059 2.56566C210.104 3.87728 210.089 5.219 210.074 6.57078ZM199.796 18.0614C200.475 16.9059 200.747 15.6145 200.679 14.2551V14.2549C200.679 13.9151 200.679 13.6433 200.611 13.1676C200.475 10.8566 198.98 9.36132 196.805 9.29335C194.494 9.22538 193.067 10.5168 192.795 12.8957C192.591 14.3231 192.659 15.6825 193.067 16.9739C193.474 18.2653 194.222 19.3528 195.649 19.5567C197.281 19.7606 198.844 19.7606 199.796 18.0614Z" fill="#010101"/>
<path fill-rule="evenodd" clip-rule="evenodd" d="M63.8542 41.5798C65.6894 42.5994 66.505 45.3181 65.3495 47.1533C64.9417 47.833 64.262 48.1728 63.3784 48.3088C61.5193 48.4817 59.6877 48.4622 57.8486 48.4425H57.8486C56.7965 48.4313 55.7419 48.42 54.6784 48.4447H49.9885C49.1729 48.4447 48.833 48.3088 48.833 47.3572C48.901 43.6189 48.901 39.8126 48.833 36.0743C48.833 35.2587 49.1049 34.9868 49.9205 34.9868C52.458 35.0321 54.9956 35.017 57.5331 35.0019C58.8018 34.9944 60.0706 34.9868 61.3393 34.9868C62.7667 34.9868 64.33 34.9868 65.0097 36.6181C65.7573 38.3173 65.2816 40.2884 63.8542 41.5798ZM57.1944 43.009H60.6609C61.4085 43.009 61.8843 43.2809 61.8843 44.1645C61.8843 44.9801 61.4085 45.1841 60.7288 45.1841H53.66C52.8166 45.1841 52.8276 44.7569 52.8409 44.2338C52.8427 44.1668 52.8444 44.0981 52.8444 44.0286C52.8444 43.9511 52.8403 43.8709 52.8361 43.7904C52.8111 43.3063 52.7858 42.8148 53.66 42.8731C54.2189 42.908 54.8136 42.925 55.4258 42.9425C56.005 42.959 56.5997 42.976 57.1944 43.009ZM54.0672 40.2894H56.786H60.1165C60.7282 40.2215 61.272 40.1535 61.3399 39.3379C61.4079 38.5902 61.0001 38.2504 60.2524 38.1824C58.7818 38.0094 57.3112 38.029 55.8406 38.0487C55.0003 38.0599 54.1599 38.0712 53.3196 38.0465C52.9797 38.0465 52.7758 38.2504 52.7078 38.6582C52.5039 39.9496 52.7758 40.2894 54.0672 40.2894Z" fill="#FDFDFD"/>
<path fill-rule="evenodd" clip-rule="evenodd" d="M114.56 48.4444H120.677C121.512 48.3867 122.421 48.4024 123.377 48.4188C124.677 48.4412 126.064 48.4651 127.474 48.3084C129.785 47.9686 130.736 47.2209 131.076 44.91C131.416 42.667 131.416 40.492 131.076 38.3169C130.804 36.5497 129.649 35.4622 127.882 35.2583C125.026 34.9122 122.143 34.9516 119.268 34.991C117.626 35.0134 115.986 35.0359 114.356 34.9864C113.608 34.9864 113.54 35.3943 113.54 35.938C113.54 37.232 113.548 38.5183 113.555 39.8022C113.57 42.3623 113.585 44.9125 113.54 47.4928C113.54 48.3084 113.88 48.4444 114.56 48.4444ZM118.366 44.9772H121.696C122.92 44.9772 124.143 44.9772 125.435 44.9092C126.454 44.8413 126.998 44.2975 127.134 43.278C127.27 42.1225 127.202 40.967 127.066 39.8115C126.93 38.9279 126.454 38.4521 125.639 38.3842C123.598 38.1575 121.511 38.1671 119.455 38.1765C119.045 38.1784 118.637 38.1803 118.23 38.1803C117.686 38.1803 117.482 38.3842 117.482 38.9279C117.482 39.5195 117.49 40.1035 117.497 40.685C117.513 41.8405 117.527 42.986 117.482 44.1616C117.482 44.8413 117.754 44.9772 118.366 44.9772Z" fill="#FDFDFC"/>
<path fill-rule="evenodd" clip-rule="evenodd" d="M168.664 45.7945C168.664 44.5711 168.256 43.6195 166.829 43.2796C168.46 42.6679 168.868 41.4445 168.732 39.8132V38.7937C168.664 35.939 167.781 34.9194 164.858 34.9194C163.544 34.9194 162.23 34.927 160.916 34.9345C158.288 34.9496 155.659 34.9647 153.031 34.9194C152.216 34.9194 152.012 35.1913 152.012 36.0069C152.08 39.6773 152.08 43.4156 152.012 47.1539C152.012 48.2414 152.352 48.3773 153.303 48.3773C153.371 48.3773 153.437 48.3774 153.502 48.3774C155.954 48.3791 155.957 48.3791 156.09 45.8625C156.09 45.2508 156.226 44.9109 156.906 44.9109C157.925 44.9449 158.928 44.9449 159.922 44.9449C160.916 44.9449 161.901 44.9449 162.887 44.9789C164.314 45.0468 164.722 45.5226 164.654 46.95C164.518 48.1734 164.994 48.5133 166.149 48.4453C167.582 48.3771 168.21 48.5142 168.48 48.2643C168.749 48.0161 168.664 47.3862 168.664 45.7945ZM161.126 38.2347C160.763 38.2423 160.398 38.2499 160.033 38.2499H156.907C156.499 38.2499 156.091 38.2499 156.091 38.7937V41.1726C156.091 41.6484 156.431 41.7163 156.771 41.7163C159.014 41.6484 161.189 41.6484 163.364 41.6484H163.364C164.587 41.6484 164.723 40.8327 164.723 39.8132C164.723 38.7257 164.179 38.3179 163.228 38.2499C162.551 38.2048 161.843 38.2196 161.126 38.2347Z" fill="#FDFEFD"/>
</g>
<defs>
<clipPath id="clip0_10440_45228">
<rect width="234.562" height="62.5317" fill="white" transform="translate(0.984375 0.594727)"/>
</clipPath>
</defs>
</svg>
