<svg width="336" height="70" viewBox="0 0 336 70" fill="none" xmlns="http://www.w3.org/2000/svg">
<path d="M34.053 0.73584C34.053 17.1813 33.9949 33.5686 34.053 50.014C34.053 52.5128 33.5881 53.4425 30.7988 53.3844C20.8618 53.2682 10.8667 53.4425 0.929688 53.5007C0.929688 42.1109 0.929688 30.663 0.929688 19.2733C1.5108 17.0069 2.96357 15.4379 5.05557 14.3919C14.4114 9.85927 23.4768 4.91983 32.8908 0.73584C33.2975 0.73584 33.7043 0.73584 34.053 0.73584Z" fill="#A53534"/>
<path d="M39.8652 69.7142C39.8652 53.0944 39.9233 36.4747 39.8652 19.8549C39.8652 17.7629 40.272 17.0656 42.5383 17.0656C51.8361 17.1818 61.1339 17.1818 70.4316 17.0656C72.6399 17.0075 73.1629 17.6467 73.1047 19.7968C72.9885 28.9783 72.9885 38.1599 73.1047 47.3414C73.1629 51.4092 71.4195 54.0242 67.8166 55.7675C59.6811 59.7191 51.6037 63.845 43.5262 67.9127C42.4802 68.4357 41.5505 69.075 40.5626 69.6561C40.272 69.7142 40.0977 69.7142 39.8652 69.7142Z" fill="#D53731"/>
<path d="M335.59 53.5006C333.382 53.4425 331.173 53.3263 328.965 53.3263C327.687 53.3263 327.164 52.8614 327.28 51.641C327.43 50.1386 328.042 46.5188 327.164 45.4644C327.039 45.314 326.868 45.2 326.641 45.1326C324.142 44.3772 321.295 44.9002 318.563 44.9002C317.832 44.9002 318.028 46.8579 317.982 47.2246C317.924 53.8493 317.924 53.7911 311.125 53.3263C309.847 53.21 309.498 52.8033 309.498 51.5829C309.556 45.7137 309.556 39.7864 309.498 33.9172C309.498 32.5806 309.905 31.9414 311.299 32.1157C311.706 32.1738 312.055 32.1157 312.462 32.1157C317.808 32.1157 317.866 32.1157 317.924 37.4619C317.924 39.1472 318.505 39.7283 320.074 39.4958C324.916 38.8906 326.97 40.0984 327.164 34.0915C327.222 32.5806 327.629 32.0576 329.14 32.1157C331.232 32.232 333.382 32.0576 335.532 31.9995C335.59 39.2053 335.59 46.3529 335.59 53.5006Z" fill="#A53534"/>
<path d="M198.914 40.4837C198.914 43.9704 198.798 47.399 198.972 50.8856C199.03 52.7452 198.624 53.3844 196.59 53.3844C191.185 53.3263 191.185 53.4425 191.185 48.1544C191.185 43.5055 191.244 38.8566 191.127 34.2659C191.069 32.6388 191.592 32.0577 193.277 32.1739C196.474 32.3482 200.309 31.2441 202.633 32.6969C204.842 34.0915 204.609 38.2755 205.539 41.1811C205.771 41.9946 206.062 42.7501 206.469 44.1447C207.515 40.4256 208.503 37.3458 209.316 34.2078C209.665 32.755 210.188 32.0577 211.815 32.1739C214.43 32.3482 217.045 32.2901 219.66 32.1739C221.055 32.1158 221.752 32.4063 221.752 34.0334C221.636 39.8445 221.694 45.5975 221.752 51.4086C221.752 52.9195 221.287 53.3263 219.776 53.3844C214.081 53.5587 214.081 53.6168 214.081 47.8638C214.081 45.307 214.081 42.7501 214.081 40.1932C213.907 40.1351 213.733 40.1351 213.616 40.077C212.512 43.738 211.176 47.2827 210.478 51.0018C209.897 53.9655 207.921 53.2101 206.12 53.3263C204.319 53.4425 203.098 53.2101 202.633 51.0018C201.82 47.399 200.599 43.8542 199.553 40.3094C199.205 40.3675 199.03 40.4256 198.914 40.4837Z" fill="#A53534"/>
<path d="M150.739 43.7948C150.739 40.0175 150.797 37.0539 150.739 34.0902C150.681 32.5793 151.204 32.1726 152.715 32.1144C158.817 31.9401 158.817 31.882 158.817 38.0418C158.817 42.4582 158.759 46.9328 158.875 51.3492C158.933 52.8601 158.41 53.4993 156.899 53.2669C156.783 53.2669 156.725 53.2669 156.609 53.2669C151.553 54.1966 147.95 52.5114 145.567 47.8625C144.521 45.8286 142.836 44.1434 140.919 41.5865C140.919 45.0732 140.802 47.8625 140.977 50.6519C141.093 52.5695 140.628 53.325 138.478 53.325C132.899 53.2087 132.899 53.325 132.899 47.7463C132.899 43.388 132.957 39.0297 132.841 34.7294C132.783 32.8118 133.19 32.2888 135.282 31.9982C140.454 31.359 144.115 32.928 146.497 37.6931C147.369 39.727 148.938 41.3541 150.739 43.7948Z" fill="#A53534"/>
<path d="M290.033 47.0814C290.64 47.3095 291.213 47.707 291.718 48.3865C292.574 49.6692 296.764 48.9605 297.065 47.4567C297.588 45.0161 294.856 45.7134 293.52 45.4228C290.963 44.8417 288.348 44.6674 285.791 44.2025C282.711 43.6214 280.968 41.7618 280.735 39.0887C280.445 36.067 281.723 33.7425 284.629 32.7546C290.212 30.8937 298.975 30.1196 304.038 33.9169C305.374 34.9629 306.711 36.3575 306.188 37.9846C305.761 39.3365 298.132 38.6463 297.065 38.1889C296.448 37.9246 295.861 37.4974 295.321 36.8224C294.247 35.5695 289.965 36.0547 289.801 37.8103C289.685 39.4374 291.718 38.9144 292.823 39.0887C296.019 39.6698 299.331 40.0766 302.527 40.774C305.316 41.3551 307.176 43.0984 307.408 46.1202C307.641 49.0838 306.188 51.5826 303.108 52.6286C297.007 54.7206 290.789 54.6044 284.571 52.8029C284.048 52.6286 283.525 52.2799 283.06 51.9894C281.491 51.0015 280.154 49.4906 280.561 47.7473C280.665 47.273 280.874 47.0104 281.15 46.8756C282.792 46.0736 288.305 46.4317 290.033 47.0814Z" fill="#A53534"/>
<path d="M92.1642 42.6918C92.1642 39.7862 92.2223 36.8807 92.1642 34.0332C92.1061 32.6967 92.4548 31.9993 93.9075 32.1737C94.3143 32.2318 94.663 32.1737 95.0697 32.1737C100.474 32.1737 100.532 32.1737 100.59 37.4618C100.59 38.2149 100.59 39.5538 100.59 39.5538L109.714 39.6248C109.714 39.6248 109.636 36.567 109.714 34.1494C109.772 32.6386 110.237 32.2318 111.748 32.1737C118.314 31.9993 118.314 31.9412 118.314 38.5078C118.314 42.7499 118.256 46.992 118.372 51.2341C118.43 52.8612 117.907 53.3261 116.28 53.3842C110.004 53.5004 109.888 53.5585 109.946 47.1663C109.946 46.1042 109.979 44.9 109.979 44.9H100.812C100.812 44.9 100.823 48.0148 100.823 51.0016C100.823 52.9774 100.184 53.3842 98.324 53.3842C92.3385 53.3261 92.3385 53.3842 92.3385 47.3407C92.1642 45.7717 92.1642 44.2608 92.1642 42.6918Z" fill="#A53534"/>
<path d="M251.503 53.3268C248.888 53.3268 242.38 53.3268 242.38 53.3268C242.38 53.3268 242.322 53.3849 241.973 51.8159C241.799 50.8861 241.043 50.7699 240.171 50.7699C238.254 50.828 236.278 50.7699 234.36 50.7699C234.012 50.7699 233.372 50.7699 233.314 51.0023C232.593 52.3928 232.21 53.3268 232.21 53.3268H223.784C223.784 53.3268 228.956 39.6707 231.862 33.1041C232.617 31.477 242.205 31.5932 242.961 33.2785C245.808 39.7869 248.539 46.3534 251.503 53.3268Z" fill="#A53534"/>
<path d="M121.22 42.6924C121.22 39.7869 121.278 36.8813 121.22 33.9758C121.162 32.6973 121.452 32.1162 122.963 32.0581C129.588 31.7094 129.588 31.6513 129.588 38.3341C129.588 42.46 129.53 46.644 129.646 50.7699C129.704 52.5132 129.413 53.3267 127.321 53.2686C121.22 53.3267 121.22 53.443 121.22 47.3413C121.22 45.8304 121.22 44.2614 121.22 42.6924Z" fill="#A53534"/>
<path fill-rule="evenodd" clip-rule="evenodd" d="M161.853 39.7245C161.847 40.693 161.84 41.6637 161.84 42.6343C161.84 44.1526 161.855 45.6561 161.87 47.1524C161.884 48.6342 161.898 50.1088 161.898 51.5834C161.84 52.7457 162.131 53.3268 163.467 53.3268C165.308 53.3074 167.149 53.3203 168.988 53.3332C172.664 53.3591 176.33 53.3848 179.971 53.1524C186.305 52.7457 189.152 49.1428 189.094 42.5181C188.978 35.8935 186.014 32.523 179.564 32.2325C176.198 32.0845 172.809 32.1014 169.426 32.1182C167.494 32.1278 165.564 32.1374 163.642 32.1162C162.189 32.1162 161.782 32.6392 161.84 33.9758C161.879 35.872 161.866 37.7939 161.853 39.7245ZM175.611 37.6371C170.265 37.2884 170.265 37.2884 170.265 42.5184C170.265 45.3754 170.265 46.7692 170.96 47.4102C171.622 48.0209 172.914 47.9483 175.437 47.8065C178.691 47.6322 180.318 45.947 180.26 42.6346C180.26 39.4385 178.749 37.8114 175.611 37.6371Z" fill="#A53534"/>
<path fill-rule="evenodd" clip-rule="evenodd" d="M277.94 48.5593C277.832 46.4709 277.726 44.4382 275.795 42.8668C278.352 41.2978 278.991 39.0895 278.41 36.3583C277.596 33.3947 275.272 32.2905 272.482 32.2324C269.577 32.1743 266.671 32.1743 263.766 32.1743C260.86 32.1743 257.955 32.1743 255.049 32.1162C253.364 32.1162 253.189 32.8717 253.189 34.2082C253.228 37.23 253.215 40.2518 253.202 43.2735C253.196 44.7844 253.189 46.2953 253.189 47.8062C253.189 50.5664 253.189 51.903 253.858 52.5785C254.526 53.2541 255.862 53.2686 258.536 53.3848C261.151 53.5011 262.139 52.8037 261.674 50.2469C261.151 47.5156 262.197 46.2953 265.044 46.8183C265.468 46.8954 265.918 46.8702 266.376 46.8445C266.609 46.8315 266.843 46.8183 267.078 46.8183C268.589 46.8183 269.286 47.5737 269.519 49.0846C270.1 53.3267 270.158 53.3267 274.342 53.3267H279.049C278.11 51.8298 278.024 50.1778 277.94 48.5593ZM261.547 39.4524C261.444 40.1665 261.336 40.9076 262.079 41.238C263.056 41.6285 264.563 41.5425 265.886 41.4671C266.379 41.4389 266.846 41.4123 267.251 41.4123C268.646 41.4704 269.518 41.0055 269.518 39.4946C269.459 38.1 268.588 37.6932 267.367 37.6932H263.009C262.976 37.6932 262.942 37.693 262.908 37.6929C262.287 37.69 261.559 37.6866 261.614 38.623C261.631 38.8752 261.59 39.1616 261.547 39.4524Z" fill="#A53534"/>
<path d="M236.822 40.1959C237.005 39.6703 237.748 39.6759 237.918 40.2056C238.405 41.7244 238.886 43.2493 239.452 44.7376C239.598 45.1232 239.316 45.5412 238.904 45.5412H235.875C235.493 45.5412 235.215 45.1793 235.32 44.8122C235.765 43.2554 236.292 41.7254 236.822 40.1959Z" fill="#F6F6FC"/>
</svg>
