<svg width="201" height="99" viewBox="0 0 201 99" fill="none" xmlns="http://www.w3.org/2000/svg">
<path d="M51.3757 0.101633C54.3743 6.37823 57.3543 12.6548 60.3529 18.9314C60.893 20.0675 61.4331 21.2037 61.9919 22.3398C61.7311 22.5447 61.4704 22.4702 61.2469 22.4702C41.2996 22.4702 21.3337 22.4702 1.38639 22.4702C1.16289 22.4702 0.958015 22.4515 0.734515 22.4329C0.715891 15.2437 0.734515 8.05447 0.697266 0.865254C0.697266 0.138883 0.90214 0.0830078 1.53539 0.0830078C18.1488 0.101633 34.7622 0.101633 51.3757 0.101633Z" fill="#010101"/>
<path d="M200.896 74.9379C196.892 74.9379 192.887 74.9379 188.883 74.9379C188.548 74.9379 188.026 75.1615 188.064 74.4351C188.101 73.7646 188.585 74.044 188.883 74.0253C190.69 73.9881 190.69 73.9881 190.69 72.1628C190.69 67.4135 190.671 62.6641 190.652 57.9148C190.652 57.4491 190.578 56.9835 190.485 56.5365C190.131 54.7299 189.069 54.0967 187.319 54.6368C185.214 55.27 183.258 58.0638 183.24 60.5781C183.202 64.8246 183.24 69.0711 183.221 73.3362C183.221 73.8577 183.351 74.0626 183.892 74.0067C184.413 73.9695 184.953 74.0067 185.475 73.9881C185.81 73.9695 185.978 74.0626 185.978 74.4537C185.978 74.8262 185.847 74.9379 185.493 74.9379C181.712 74.9379 177.913 74.9379 174.132 74.9379C173.76 74.9379 173.666 74.8076 173.666 74.4537C173.666 74.0626 173.834 73.9695 174.169 74.0067C174.225 74.0067 174.3 74.0067 174.356 74.0067C175.007 73.9881 175.864 74.2116 176.237 73.8763C176.684 73.4852 176.386 72.6098 176.386 71.9393C176.386 67.0969 176.367 62.2544 176.311 57.4305C176.293 56.3503 176.162 55.1769 174.989 54.6554C173.778 54.1339 172.661 54.5995 171.692 55.3445C169.942 56.7228 168.992 58.5666 168.954 60.8016C168.917 64.955 168.954 69.1083 168.936 73.2803C168.936 73.8205 169.048 74.0812 169.644 74.0067C170.072 73.9508 170.519 74.0067 170.947 73.9881C171.32 73.9695 171.506 74.044 171.506 74.491C171.487 74.8821 171.32 74.9379 170.985 74.9379C167.073 74.9379 163.162 74.9379 159.251 74.9379C158.897 74.9379 158.673 74.9007 158.673 74.4537C158.673 73.9508 158.971 74.0067 159.288 74.0067C159.344 74.0067 159.418 74.0067 159.474 74.0067C160.331 73.9508 161.504 74.3978 161.951 73.8205C162.38 73.2803 162.1 72.1628 162.1 71.3061C162.1 65.9049 162.082 60.5036 162.119 55.1024C162.119 54.3947 161.97 54.078 161.206 54.1712C160.629 54.227 160.033 54.1898 159.437 54.1898C159.083 54.1898 158.655 54.3015 158.673 53.6869C158.692 53.1282 159.083 53.2585 159.4 53.2399C161.076 53.2213 162.752 53.2213 164.429 53.1654C165.956 53.1282 167.464 53.0164 168.917 52.0293C168.917 53.6869 168.917 55.2514 168.917 56.8345C170.78 54.1712 173.275 52.8302 176.386 52.6439C179.645 52.4577 182.01 53.8545 183.221 57.0767C184.599 54.8603 186.443 53.4448 188.92 52.8674C190.261 52.5508 191.621 52.5135 192.981 52.8115C195.402 53.333 196.948 55.1955 197.339 57.9893C197.469 58.9391 197.525 59.9076 197.525 60.8575C197.525 64.9922 197.544 69.1083 197.506 73.2431C197.506 73.8391 197.655 74.044 198.27 74.0067C199.127 73.9508 200.002 73.9881 200.878 73.9881C200.896 74.3233 200.896 74.6399 200.896 74.9379Z" fill="#010101"/>
<path d="M180.595 98.9631C180.595 95.3871 180.595 91.8298 180.614 88.2538C180.614 87.9744 180.353 87.5088 180.875 87.4343C181.322 87.3598 181.75 87.3412 182.085 87.844C183.669 90.2839 185.289 92.7051 186.909 95.1264C187.133 95.4616 187.356 95.7783 187.598 96.1508C187.84 95.8714 187.747 95.5734 187.766 95.3313C187.766 92.9473 187.785 90.5447 187.766 88.1607C187.766 87.6578 187.785 87.3784 188.436 87.3784C189.088 87.3784 189.107 87.6764 189.107 88.1607C189.088 91.4759 189.107 94.7911 189.088 98.125C189.088 98.4044 189.032 98.6651 188.995 98.9445C188.623 98.9445 188.25 98.9445 187.878 98.9445C187.468 98.7396 187.244 98.3671 187.002 97.9946C185.363 95.5548 183.743 93.0963 182.16 90.7309C182.16 93.1708 182.179 95.6665 182.141 98.1622C182.141 98.4789 182.048 98.7769 181.732 98.9445C181.34 98.9631 180.968 98.9631 180.595 98.9631Z" fill="#010101"/>
<path d="M92.7043 98.9632C92.7043 95.4245 92.6857 91.8858 92.7229 88.3656C92.7229 88.0676 92.4249 87.5461 92.9837 87.4344C93.5052 87.3413 93.9336 87.3971 94.3061 87.9745C95.9451 90.5261 97.6399 93.0405 99.3348 95.5549C99.4838 95.7784 99.6514 95.9832 99.9494 96.393C99.9494 93.4875 99.968 90.8055 99.9308 88.1235C99.9122 87.453 100.173 87.3599 100.732 87.3971C101.104 87.4158 101.197 87.5461 101.197 87.9C101.179 91.476 101.197 95.0334 101.179 98.6093C101.179 98.7211 101.123 98.8515 101.086 98.9632C100.713 98.9632 100.341 98.9632 99.968 98.9632C99.5583 98.7584 99.3348 98.3858 99.1113 98.0133C97.5282 95.6107 95.8892 93.264 94.2874 90.6565C94.2688 93.1336 94.2874 95.4245 94.2688 97.7154C94.2688 98.1624 94.3433 98.6652 93.8404 98.9446C93.4493 98.9632 93.0768 98.9632 92.7043 98.9632Z" fill="#010101"/>
<path d="M137.217 98.962C135.001 98.1984 134.163 96.5967 134.256 94.3244C134.349 92.2571 134.293 90.1711 134.256 88.1037C134.256 87.5822 134.386 87.4146 134.926 87.4146C135.504 87.3959 135.56 87.6381 135.56 88.1223C135.541 90.4504 135.522 92.7786 135.56 95.088C135.597 97.1927 137.441 98.4219 139.378 97.6583C140.663 97.1554 141.035 96.0752 141.035 94.8273C141.035 92.5923 141.035 90.3573 141.035 88.1409C141.035 87.7498 140.98 87.4332 141.576 87.4332C142.134 87.4332 142.321 87.5636 142.302 88.1409C142.265 90.1152 142.19 92.1081 142.321 94.0823C142.47 96.4104 141.706 98.1053 139.471 98.9806C138.707 98.962 137.962 98.962 137.217 98.962Z" fill="#010101"/>
<path d="M194.191 98.963C193.464 98.6464 192.682 98.4415 192.086 97.8828C191.881 97.6779 191.527 97.4916 191.937 97.1564C192.216 96.9329 192.365 96.43 192.887 96.8956C194.004 97.8828 195.308 98.0504 196.724 97.6779C197.767 97.3985 198.325 96.6535 198.307 95.6664C198.27 94.6793 197.767 94.1205 196.631 93.897C195.848 93.7294 195.029 93.6549 194.265 93.45C192.701 93.0217 191.974 92.0904 191.974 90.6004C191.974 89.0359 192.775 87.9557 194.284 87.5273C195.979 87.0244 197.804 87.4528 199.015 88.6262C198.623 89.2408 198.27 89.5202 197.506 88.9428C196.686 88.3282 195.625 88.3096 194.656 88.5889C193.781 88.8497 193.278 89.4643 193.241 90.4328C193.204 91.4385 193.688 92.0345 194.6 92.258C195.494 92.5002 196.426 92.5933 197.32 92.8168C198.642 93.1334 199.387 94.0088 199.555 95.3312C199.722 96.5604 199.126 97.771 198.046 98.3856C197.655 98.6091 197.227 98.7581 196.798 98.9444C195.923 98.963 195.066 98.963 194.191 98.963Z" fill="#010101"/>
<path d="M106.3 98.9649C105.611 98.6296 104.847 98.462 104.27 97.9219C104.046 97.717 103.618 97.5494 104.083 97.1583C104.363 96.9161 104.549 96.4878 105.052 96.9348C105.946 97.7729 107.082 97.9405 108.255 97.8287C109.615 97.6984 110.397 96.9161 110.397 95.7241C110.397 94.7556 109.932 94.141 108.982 93.9361C108.106 93.7499 107.212 93.6568 106.337 93.4146C104.791 93.0049 104.102 92.0923 104.065 90.6395C104.046 89.0937 104.828 87.9575 106.337 87.5292C107.827 87.1194 109.28 87.2125 110.602 88.1252C110.807 88.2742 111.384 88.3673 110.956 88.8329C110.695 89.1309 110.49 89.5593 109.932 89.0937C109.131 88.4232 108.125 88.33 107.119 88.4977C106.058 88.6653 105.424 89.3358 105.35 90.3415C105.275 91.3845 105.667 91.9619 106.803 92.2785C107.548 92.4834 108.33 92.5393 109.075 92.7069C110.714 93.0421 111.589 94.0106 111.664 95.5379C111.738 97.0279 110.937 98.1826 109.466 98.7227C109.261 98.7972 109.019 98.76 108.87 98.9649C108.032 98.9649 107.175 98.9649 106.3 98.9649Z" fill="#010101"/>
<path d="M73.8927 98.965C73.4271 98.7043 72.9242 98.4622 72.4958 98.1455C71.1548 97.2143 71.0244 95.7802 71.0058 94.3274C70.9872 93.2099 71.0244 92.0924 71.0803 90.9749C71.1734 89.0566 72.4958 87.6411 74.3397 87.3803C76.4629 87.101 78.1205 88.0322 78.7724 89.8947C78.8655 90.1554 79.2194 90.6024 78.7352 90.7142C78.3627 90.8073 77.8225 91.0122 77.5432 90.2672C76.854 88.4978 75.0288 87.9391 73.5202 88.9076C72.9242 89.2987 72.5331 89.8574 72.4399 90.5652C72.1978 92.2601 72.1978 93.9736 72.4399 95.6684C72.6076 96.8232 73.5016 97.6427 74.6936 97.8103C75.8855 97.9779 76.9285 97.3819 77.5059 96.2644C77.6177 96.0409 77.5618 95.6498 77.897 95.5939C78.2323 95.538 78.6234 95.4263 78.8842 95.6498C79.089 95.836 78.8842 96.1527 78.791 96.4134C78.3627 97.7358 77.3383 98.4249 76.1463 98.9278C75.3827 98.965 74.6377 98.965 73.8927 98.965Z" fill="#010101"/>
<path d="M148.206 98.9624C148.038 98.7016 147.722 98.7389 147.48 98.6085C146.325 97.9939 145.524 97.1185 145.375 95.7589C145.189 93.9895 145.152 92.2388 145.394 90.4881C145.636 88.6814 147.182 87.4149 149.193 87.3404C151.093 87.2659 152.825 88.5697 153.179 90.3204C153.216 90.5253 153.346 90.8047 152.974 90.7674C152.583 90.7302 152.099 91.0468 151.819 90.3763C151.205 88.9236 150.441 88.4579 149.063 88.5324C147.889 88.5883 146.921 89.3892 146.716 90.5439C146.418 92.2388 146.437 93.9337 146.679 95.6285C146.865 96.9136 147.703 97.6959 148.932 97.8635C150.106 98.0311 151.186 97.4165 151.745 96.3177C151.857 96.0755 151.801 95.703 152.136 95.6472C152.452 95.5913 152.862 95.554 153.123 95.703C153.384 95.852 153.104 96.2059 153.03 96.448C152.62 97.7704 151.596 98.4595 150.422 98.9996C149.696 98.9624 148.951 98.9624 148.206 98.9624Z" fill="#010101"/>
<path d="M158.077 98.9621C158.059 95.7958 158.021 92.6296 158.059 89.4634C158.059 88.7184 157.854 88.4762 157.127 88.5507C156.55 88.6066 155.954 88.5321 155.358 88.5694C154.911 88.588 154.706 88.5135 154.687 87.9734C154.669 87.4146 154.948 87.396 155.358 87.396C157.556 87.4146 159.772 87.4146 161.97 87.396C162.38 87.396 162.584 87.4519 162.584 87.9361C162.584 88.4204 162.454 88.588 161.951 88.5694C161.299 88.5321 160.647 88.6066 159.996 88.5507C159.4 88.5135 159.269 88.737 159.269 89.2957C159.288 92.1454 159.288 95.0136 159.269 97.8632C159.269 98.2357 159.213 98.5896 159.176 98.9621C158.822 98.9621 158.45 98.9621 158.077 98.9621Z" fill="#010101"/>
<path d="M116.732 98.9621C116.508 97.9563 116.638 96.932 116.638 95.9076C116.62 93.7098 116.62 91.4935 116.638 89.2957C116.638 88.737 116.489 88.5135 115.912 88.5507C115.242 88.6066 114.552 88.5321 113.863 88.5694C113.342 88.6066 113.342 88.3272 113.342 87.9361C113.342 87.545 113.435 87.396 113.863 87.396C116.154 87.4146 118.464 87.4146 120.755 87.396C121.22 87.396 121.22 87.6381 121.22 87.9734C121.22 88.29 121.239 88.588 120.755 88.5694C120.065 88.5321 119.395 88.6066 118.706 88.5507C118.054 88.4949 117.868 88.7184 117.868 89.3702C117.905 92.2012 117.886 95.0136 117.886 97.8446C117.886 98.2171 117.868 98.5896 117.849 98.9621C117.477 98.9621 117.104 98.9621 116.732 98.9621Z" fill="#010101"/>
<path d="M165.137 98.9631C164.932 98.7024 164.969 98.3671 164.969 98.0691C164.969 94.7725 164.969 91.4945 164.969 88.1979C164.969 87.7509 164.914 87.3784 165.603 87.3784C166.273 87.3784 166.255 87.6764 166.255 88.1607C166.236 91.7553 166.255 95.3499 166.255 98.9445C165.882 98.9631 165.51 98.9631 165.137 98.9631Z" fill="#010101"/>
<path d="M33.2536 67.5242C34.6877 63.7619 36.662 60.4467 37.5187 56.6658C37.854 55.1945 37.258 54.4122 35.768 54.226C35.3955 54.1887 35.023 54.1701 34.6505 54.1701C34.3339 54.1701 34.2221 54.0583 34.2221 53.7417C34.2221 53.4251 34.278 53.2202 34.6691 53.2202C36.9414 53.2388 39.195 53.2388 41.4672 53.2202C41.8211 53.2202 41.9887 53.332 41.9701 53.7045C41.9701 54.0025 41.877 54.1701 41.5603 54.1701C40.387 54.2073 39.8096 55.0641 39.3999 55.9581C38.3941 58.1186 37.4629 60.2977 36.4944 62.4768C34.7436 66.4998 32.9743 70.5228 31.2235 74.5457C31 75.0672 30.851 75.5701 30.0315 75.5329C29.2679 75.4956 29.212 74.9927 29.0258 74.5457C27.2005 70.1875 25.3753 65.8293 23.55 61.4338C23.2148 61.6387 23.1775 61.9926 23.0472 62.2719C21.2406 66.4439 19.4153 70.5973 17.6273 74.7692C17.4224 75.2349 17.2176 75.4956 16.6216 75.4956C16.0442 75.4956 15.8207 75.2535 15.6158 74.7692C13.0083 68.3809 10.3264 61.9181 7.73749 55.4366C7.36499 54.5053 6.95524 53.9652 5.89362 54.1701C5.68875 54.2073 5.44662 54.1887 5.26038 54.1142C5.01825 54.0025 5.09275 53.7417 5.11138 53.5368C5.13 53.2388 5.37212 53.2388 5.59562 53.2388C9.28336 53.2388 12.9711 53.2388 16.6775 53.2388C17.0686 53.2388 17.1244 53.4251 17.1244 53.7603C17.1244 54.077 17.0127 54.2073 16.6961 54.2073C16.1001 54.1887 15.5227 54.226 14.9267 54.2073C14.3307 54.1701 14.2562 54.3563 14.4797 54.8965C15.6531 57.6902 16.8078 60.4839 17.9626 63.2963C18.5399 64.6932 19.1173 66.09 19.7692 67.6732C20.8681 65.1588 21.8924 62.7934 22.9168 60.4467C23.0472 60.1487 22.8795 59.9066 22.7864 59.6644C22.1718 58.1372 21.5199 56.6472 20.9612 55.1013C20.7004 54.4122 20.3652 54.0583 19.6202 54.2073C19.4712 54.2446 19.3036 54.2073 19.1546 54.2073C18.7821 54.226 18.4654 54.226 18.4841 53.7045C18.5027 53.2202 18.8193 53.2761 19.1173 53.2761C20.3838 53.2761 21.6689 53.2761 22.9354 53.2761C25.2263 53.2761 27.5358 53.2761 29.8266 53.2761C30.1246 53.2761 30.5344 53.1271 30.553 53.7045C30.5716 54.3377 30.1619 54.2073 29.808 54.2073C29.1375 54.2073 28.4484 54.2073 27.6475 54.2073C29.51 58.6401 31.3539 62.9797 33.2536 67.5242Z" fill="#010101"/>
<path d="M109.373 38.8228C109.373 39.307 109.373 39.6236 109.373 39.9216C109.373 50.929 109.391 61.9549 109.354 72.9622C109.354 73.8935 109.596 74.1542 110.472 74.0425C111.03 73.968 111.589 74.0425 112.148 74.0239C112.502 74.0239 112.818 73.968 112.8 74.5267C112.781 75.0296 112.483 74.9551 112.185 74.9551C111.31 74.9551 110.453 74.9551 109.578 74.9551C106.355 74.9551 103.133 74.9551 99.8926 74.9551C99.576 74.9551 99.1104 75.16 99.1104 74.4895C99.1104 73.8376 99.5573 74.0425 99.8926 74.0239C100.489 74.0052 101.085 73.968 101.662 74.0239C102.426 74.117 102.556 73.8004 102.556 73.0926C102.537 63.2214 102.537 53.3688 102.537 43.4976C102.537 42.7712 102.854 41.8027 102.388 41.3557C101.923 40.8901 100.973 41.2626 100.228 41.2067C100.004 41.1881 99.7995 41.1881 99.576 41.2067C99.1849 41.244 99.1104 41.0205 99.1104 40.7039C99.1104 40.3686 99.2593 40.2569 99.5573 40.2755C99.7436 40.2755 99.9298 40.2755 100.116 40.2755C101.979 40.2755 103.841 40.2755 105.685 40.1637C107.007 40.0706 108.274 39.9402 109.373 38.8228Z" fill="#010101"/>
<path d="M125.818 38.8052C125.818 50.3154 125.837 61.6021 125.8 72.8888C125.8 73.8573 126.079 74.1367 126.973 74.0249C127.495 73.9504 128.035 74.0249 128.556 74.0063C128.91 74.0063 129.227 73.9504 129.208 74.5092C129.189 75.012 128.891 74.9375 128.575 74.9375C127.401 74.9375 126.209 74.9375 125.036 74.9375C122.112 74.9375 119.206 74.9375 116.282 74.9375C115.984 74.9375 115.575 75.1052 115.556 74.5278C115.519 73.8945 115.947 74.0249 116.301 74.0249C116.916 74.0249 117.549 73.969 118.163 74.0435C118.853 74.118 118.964 73.82 118.964 73.2054C118.946 62.8127 118.946 52.4386 118.964 42.0459C118.964 41.394 118.797 41.1705 118.145 41.2264C117.53 41.2823 116.897 41.245 116.282 41.245C115.966 41.245 115.575 41.3382 115.575 40.7794C115.556 40.2207 115.928 40.3138 116.264 40.3138C118.238 40.3324 120.231 40.3138 122.205 40.1834C123.49 40.0717 124.738 39.9227 125.818 38.8052Z" fill="#7EF24C"/>
<path d="M99.0547 0.304688C105.983 0.304688 112.912 0.323312 119.84 0.323312C116.283 7.69878 112.725 15.0743 109.056 22.6732C108.181 20.7176 107.399 18.9855 106.616 17.2534C104.195 11.8149 101.755 6.41366 99.2968 0.99381C99.2037 0.77031 99.1478 0.528187 99.0547 0.304688Z" fill="#7EF24C"/>
<path d="M68.4736 0.492695C68.6971 0.157446 69.0324 0.287821 69.3118 0.287821C75.6815 0.287821 82.0512 0.287821 88.4023 0.287821C88.663 0.287821 88.961 0.157446 89.1659 0.47407C85.6272 7.81229 82.0698 15.1505 78.438 22.675C75.0669 15.1691 71.7702 7.83091 68.4736 0.492695Z" fill="#010101"/>
<path d="M129.49 94.7539C129.136 94.102 128.875 93.6364 129.881 93.3198C130.626 93.0963 131.036 92.4072 131.259 91.6622C131.948 89.5017 130.645 87.5647 128.335 87.4157C127.069 87.3412 125.802 87.4343 124.536 87.3598C123.847 87.3225 123.604 87.4902 123.604 88.2538C123.642 91.8112 123.623 95.3685 123.623 98.9259C123.996 98.9259 124.368 98.9259 124.741 98.9259C125.169 98.7024 125.169 98.274 125.169 97.8829C125.188 96.933 125.169 95.9645 125.188 95.0146C125.188 94.7353 125.169 94.4559 125.448 94.2696C126.044 93.8785 127.46 94.2324 127.814 94.8656C128.354 95.9086 128.875 96.9703 129.397 98.0132C129.583 98.3671 129.751 98.7396 130.142 98.9259C130.645 98.9259 131.129 98.9259 131.632 98.9259C130.924 97.5663 130.235 96.1508 129.49 94.7539ZM125.392 92.7238C124.945 92.7424 124.89 92.5189 124.908 92.165C124.927 91.6622 124.908 91.1779 124.908 90.675C124.908 88.5704 124.908 88.5704 127.013 88.5704C127.497 88.5704 128.019 88.5518 128.484 88.6449C129.62 88.8684 130.179 89.6134 130.142 90.7495C130.105 91.8112 129.471 92.5375 128.354 92.6306C127.367 92.7238 126.38 92.6679 125.392 92.7238Z" fill="#010101"/>
<path d="M89.4807 90.6172C89.2759 88.6802 87.6555 87.3579 85.6254 87.3206C83.6325 87.2834 82.0122 88.5685 81.6583 90.5055C81.4348 91.6975 81.5838 92.9081 81.5279 94.1187C81.3975 96.4282 82.217 98.1417 84.5079 98.9612C85.197 98.9612 85.8675 98.9612 86.5566 98.9612C88.0839 98.3838 89.3131 97.4898 89.4807 95.7205C89.6484 94.0256 89.667 92.3121 89.4807 90.6172ZM88.2143 95.3293C88.1025 96.8007 87.0223 97.8064 85.6254 97.8437C84.2471 97.8809 83.111 96.9683 82.9248 95.5528C82.7199 93.9883 82.7199 92.3866 82.9248 90.8221C83.111 89.2949 84.2658 88.4195 85.7744 88.5126C87.134 88.5871 88.1398 89.5929 88.2329 91.0642C88.2888 91.772 88.2329 92.4797 88.2329 93.2061C88.2329 93.8952 88.2888 94.6216 88.2143 95.3293Z" fill="#010101"/>
<path d="M177.244 90.151C176.927 88.4562 175.251 87.3014 173.37 87.32C171.526 87.3387 169.98 88.512 169.589 90.1697C169.272 91.5107 169.514 92.8889 169.421 94.2485C169.272 96.558 170.166 98.197 172.401 98.9792C173.09 98.9792 173.761 98.9792 174.45 98.9792C175.754 98.4205 177.001 97.7314 177.244 96.1669C177.579 94.1554 177.597 92.1253 177.244 90.151ZM175.996 95.8316C175.679 97.0423 174.673 97.8431 173.425 97.8431C172.178 97.8431 171.079 97.0795 170.855 95.8503C170.539 94.0809 170.539 92.2743 170.855 90.5049C171.079 89.2384 172.178 88.4934 173.5 88.512C174.766 88.5307 175.716 89.3129 176.014 90.5794C176.219 91.4362 176.126 92.3115 176.163 93.1683C176.126 94.0436 176.238 94.9563 175.996 95.8316Z" fill="#010101"/>
<path d="M84.1384 52.6223C77.4148 52.585 72.3302 57.4461 72.3116 63.9649C72.293 70.6326 77.2099 75.4937 83.9894 75.5309C90.713 75.5682 95.7603 70.6885 95.779 64.1511C95.7976 57.5951 90.8247 52.6595 84.1384 52.6223ZM88.0496 69.5523C88.0496 70.167 87.9751 70.7816 87.8634 71.3962C87.4723 73.4449 86.1499 74.5624 84.1384 74.5811C82.0524 74.6183 80.6928 73.5194 80.2458 71.4707C80.1154 70.8747 80.0409 70.2601 80.0409 69.6268C80.0595 67.7643 80.0409 65.9018 80.0409 64.058C80.0409 62.2327 80.0595 60.4075 80.0409 58.5823C80.0409 57.9304 80.1154 57.2785 80.2644 56.6453C80.6928 54.7083 81.9779 53.6467 83.9149 53.5722C85.8891 53.4977 87.2488 54.522 87.7889 56.4776C87.9751 57.1668 88.0683 57.8745 88.0683 58.5823C88.0496 62.2327 88.0683 65.9018 88.0496 69.5523Z" fill="#010101"/>
<path d="M56.6095 52.6221C49.9045 52.6594 44.9131 57.5577 44.9317 64.1323C44.9503 70.6883 49.979 75.5494 56.684 75.5308C63.4635 75.5121 68.4363 70.6324 68.3991 64.002C68.3991 57.4832 63.3145 52.6035 56.6095 52.6221ZM60.4835 71.3774C60.2041 72.9233 59.4219 74.0967 57.7829 74.4505C56.2929 74.7858 54.8588 74.6368 53.7785 73.4075C52.9404 72.4577 52.6983 71.247 52.6797 70.0364C52.6424 66.0693 52.661 62.1022 52.6797 58.1351C52.6797 57.6695 52.7728 57.2039 52.8659 56.7569C53.2757 54.6895 54.6539 53.5534 56.7026 53.572C58.6955 53.5906 60.0738 54.7267 60.4835 56.7196C60.6139 57.3529 60.6884 58.0047 60.6884 58.6566C60.6698 60.4446 60.6884 62.2512 60.6884 64.4862C60.558 66.4791 60.9305 68.9375 60.4835 71.3774Z" fill="#010101"/>
<path fill-rule="evenodd" clip-rule="evenodd" d="M138.541 75.4217C141.688 75.757 144.594 75.2541 146.829 72.6094C148.226 74.9189 149.958 75.7756 152.658 75.5149C155.08 75.2541 156.942 73.4289 156.998 71.287C156.998 71.2473 157 71.2073 157.001 71.1678C157.012 70.9103 157.022 70.6724 156.57 70.6724C156.141 70.6724 156.067 70.84 156.048 71.2125C156.029 71.8457 155.843 72.4417 155.415 72.926C155.098 73.2799 154.707 73.5406 154.186 73.3916C153.701 73.2612 153.496 72.8701 153.441 72.4231C153.366 71.9016 153.292 71.3801 153.292 70.8586C153.282 69.0055 153.282 67.1476 153.282 65.2875C153.282 63.4273 153.282 61.5648 153.273 59.7023C153.254 56.7596 151.913 54.8039 149.175 53.6865C147.238 52.9042 145.208 52.6807 143.16 52.6807C140.571 52.6621 138.094 53.1277 136.008 54.8039C134.89 55.7166 134.257 56.8527 134.406 58.3613C134.573 59.9444 135.579 60.9129 137.293 61.0805C138.801 61.2295 140.105 60.4287 140.496 59.1063C140.962 57.5604 140.478 56.5733 138.876 55.6979C138.823 55.6699 138.766 55.6433 138.709 55.6164C138.423 55.4829 138.118 55.3405 138.149 54.953C138.187 54.4873 138.615 54.3011 138.988 54.1707C140.422 53.6492 141.93 53.4443 143.458 53.6492C145.618 53.9286 146.512 54.7853 146.661 56.9272C146.729 57.9742 146.721 59.0142 146.713 60.0557C146.708 60.7188 146.702 61.3825 146.717 62.049C146.733 62.4825 146.5 62.487 146.244 62.4919C146.204 62.4927 146.162 62.4935 146.121 62.496C144.575 62.6078 143.029 62.7195 141.483 62.8685C139.565 63.0548 137.665 63.3342 135.914 64.1909C133.53 65.3457 132.413 67.264 132.562 69.8901C132.711 72.3114 134.015 73.8759 136.212 74.8071C136.957 75.1237 137.74 75.3286 138.541 75.4217ZM146.712 68.0464C146.705 67.673 146.699 67.3109 146.716 66.9654C146.716 66.5085 146.71 66.0805 146.704 65.6695C146.695 65.0921 146.687 64.548 146.698 64.004C146.716 63.5198 146.586 63.3522 146.083 63.4267C145.499 63.502 144.91 63.5583 144.318 63.6149C143.741 63.6701 143.161 63.7255 142.581 63.7991C140.793 64.0413 139.806 64.8049 139.564 66.3321C139.266 68.1388 139.248 69.9826 139.75 71.7706C140.067 72.9067 140.775 73.6517 141.948 73.9311C144.034 74.4154 145.878 73.0557 146.511 70.5972C146.741 69.729 146.726 68.8607 146.712 68.0464Z" fill="#010101"/>
</svg>
