<svg width="71" height="105" viewBox="0 0 71 105" fill="none" xmlns="http://www.w3.org/2000/svg">
<path fill-rule="evenodd" clip-rule="evenodd" d="M70.7038 35.264C70.7038 54.7398 54.9156 70.528 35.4398 70.528C15.964 70.528 0.175781 54.7398 0.175781 35.264C0.175781 15.7882 15.964 0 35.4398 0C54.9156 0 70.7038 15.7882 70.7038 35.264ZM43.7126 63.6311V23.2449L49.2287 26.791V67.3742L43.7126 63.6311ZM52.5804 28.7629V54.1766L58.0966 57.9197V32.309L52.5804 28.7629Z" fill="#D8782D"/>
<path d="M3.53809 77.3048H13.0468C14.6245 77.3048 16.0443 77.4913 17.3064 77.8642C18.5972 78.2371 19.6872 78.7821 20.5764 79.4992C21.4943 80.2163 22.197 81.0911 22.6847 82.1237C23.1723 83.1277 23.4161 84.2894 23.4161 85.6089C23.4161 87.1578 23.1293 88.4916 22.5556 89.6103C21.9819 90.7289 21.1931 91.6612 20.1892 92.407C19.2139 93.1241 18.0665 93.6691 16.7471 94.042C15.4276 94.3862 14.0221 94.5583 12.5305 94.5583H9.43265V104.411H3.53809V77.3048ZM9.43265 90.0405H11.8421C12.5879 90.0405 13.2906 89.9832 13.9504 89.8684C14.6388 89.725 15.2268 89.4955 15.7144 89.18C16.2308 88.8358 16.6323 88.4055 16.9192 87.8892C17.206 87.3442 17.3494 86.6702 17.3494 85.867C17.3494 84.4615 16.8762 83.4289 15.9296 82.7691C14.983 82.1094 13.7783 81.7795 12.3154 81.7795H9.43265V90.0405Z" fill="#252122"/>
<path d="M37.295 77.3048C40.1634 77.3048 42.4295 77.9215 44.0931 79.1549C45.7568 80.3884 46.5886 82.1237 46.5886 84.3611C46.5886 85.1929 46.4309 85.9387 46.1154 86.5984C45.8285 87.2582 45.4413 87.8319 44.9537 88.3195C44.4947 88.7784 43.9641 89.1657 43.3617 89.4812C42.788 89.7967 42.2 90.0262 41.5976 90.1696C42.4008 90.313 43.1466 90.5568 43.835 90.9011C44.5521 91.2166 45.1688 91.6468 45.6851 92.1918C46.2301 92.7368 46.646 93.3966 46.9328 94.171C47.2484 94.9168 47.4061 95.7773 47.4061 96.7526C47.4061 97.8713 47.1623 98.9039 46.6747 99.8505C46.1871 100.768 45.4843 101.572 44.5664 102.26C43.6772 102.948 42.5872 103.479 41.2964 103.852C40.0343 104.225 38.6288 104.411 37.0799 104.411H27.6142V77.3048H37.295ZM33.5087 88.1474H36.3054C37.5962 88.1474 38.6145 87.8749 39.3603 87.3299C40.1347 86.7562 40.522 85.91 40.522 84.7914C40.522 83.7874 40.1634 83.0416 39.4463 82.554C38.7579 82.0377 37.754 81.7795 36.4345 81.7795H33.5087V88.1474ZM33.5087 99.9365H36.3054C37.7683 99.9365 38.973 99.664 39.9196 99.119C40.8662 98.5453 41.3395 97.5701 41.3395 96.1933C41.3395 94.9025 40.8375 93.9846 39.8336 93.4396C38.8296 92.8659 37.5962 92.5791 36.1333 92.5791H33.5087V99.9365Z" fill="#252122"/>
<path d="M60.9297 76.8315C62.6795 76.8315 64.2284 77.0036 65.5766 77.3479C66.9247 77.6921 68.1294 78.1367 69.1907 78.6817L67.8569 83.0703C66.6809 82.4966 65.5479 82.0664 64.4579 81.7795C63.3679 81.464 62.3066 81.3062 61.274 81.3062C59.8971 81.3062 58.8215 81.5787 58.047 82.1237C57.3012 82.6687 56.9283 83.4002 56.9283 84.3181C56.9283 85.2646 57.2582 85.9817 57.9179 86.4694C58.5777 86.957 59.639 87.4303 61.1018 87.8892L63.6834 88.7067C65.8347 89.4238 67.5127 90.4421 68.7175 91.7616C69.9509 93.081 70.5676 94.7017 70.5676 96.6235C70.5676 97.7709 70.3524 98.8465 69.9222 99.8505C69.4919 100.854 68.8465 101.729 67.986 102.475C67.1255 103.221 66.0498 103.809 64.7591 104.239C63.4683 104.669 61.9624 104.885 60.2413 104.885C57 104.885 54.0312 104.225 51.3349 102.905L52.6688 98.5167C53.9022 99.119 55.1069 99.5923 56.2829 99.9365C57.459 100.252 58.6924 100.41 59.9832 100.41C61.5034 100.41 62.6508 100.137 63.4253 99.5923C64.1997 99.0186 64.587 98.2298 64.587 97.2259C64.587 96.8817 64.5152 96.5518 64.3718 96.2363C64.2571 95.8921 64.0276 95.5765 63.6834 95.2897C63.3392 94.9742 62.8659 94.673 62.2636 94.3862C61.6899 94.0706 60.9297 93.7695 59.9832 93.4826L57.7028 92.7081C56.6989 92.3639 55.781 91.9624 54.9491 91.5034C54.1173 91.0445 53.4002 90.5138 52.7978 89.9115C52.2242 89.3091 51.7652 88.6063 51.421 87.8032C51.1055 86.9713 50.9477 86.0104 50.9477 84.9204C50.9477 83.7444 51.1628 82.6687 51.5931 81.6935C52.0234 80.6895 52.6544 79.829 53.4862 79.1119C54.3468 78.3948 55.3937 77.8355 56.6271 77.4339C57.8892 77.0323 59.3234 76.8315 60.9297 76.8315Z" fill="#252122"/>
</svg>
