<svg width="14" height="15" viewBox="0 0 14 15" fill="none" xmlns="http://www.w3.org/2000/svg">
<g clip-path="url(#clip0)">
<path d="M13.9967 15.0001V14.9995H14.0002V9.49826C14.0002 6.80701 13.4595 4.73389 10.523 4.73389C9.11132 4.73389 8.16398 5.56389 7.77723 6.35076H7.7364V4.98514H4.95215V14.9995H7.85132V10.0408C7.85132 8.73514 8.08232 7.47264 9.5914 7.47264C11.0783 7.47264 11.1005 8.96264 11.1005 10.1245V15.0001H13.9967Z" fill="#3E3C99"/>
<path d="M0.231445 4.9856H3.13411V15H0.231445V4.9856Z" fill="#3E3C99"/>
<path d="M1.68117 0C0.753083 0 0 0.806875 0 1.80125C0 2.79563 0.753083 3.61938 1.68117 3.61938C2.60925 3.61938 3.36233 2.79563 3.36233 1.80125C3.36175 0.806875 2.60867 0 1.68117 0V0Z" fill="#3E3C99"/>
</g>
<defs>
<clipPath id="clip0">
<rect width="14" height="15" fill="white"/>
</clipPath>
</defs>
</svg>
