<svg width="108" height="32" viewBox="0 0 108 32" fill="none" xmlns="http://www.w3.org/2000/svg">
<path d="M0 1.59237C0 0.71293 0.712928 0 1.59237 0H25.7141C26.5935 0 27.3064 0.712928 27.3064 1.59237V22.4694C27.3064 23.3699 26.831 24.2036 26.056 24.6622L14.9505 31.2325C14.1504 31.7058 13.156 31.7058 12.3559 31.2325L1.25048 24.6622C0.475414 24.2036 0 23.3699 0 22.4694V1.59237Z" fill="#F0742F"/>
<path d="M8.11286 11.1709H3.17505V5.18909H24.2195V11.1709H19.0466L13.7561 15.0821L8.11286 11.1709Z" fill="#131F33"/>
<path d="M8.23096 21.5242V15.4273L13.639 19.1085L19.1647 15.4273V21.5242L13.639 25.3204L8.23096 21.5242Z" fill="#131F33"/>
<rect x="12.8159" y="4.03885" width="1.64594" height="2.07064" fill="#F0742F"/>
<path d="M48.702 8.62337H38.2295V11.7248H41.8546V22.7209H45.0769V11.7248H48.702V8.62337ZM50.1125 8.62337V22.7209H53.3348V8.62337H50.1125ZM69.8546 8.62337H66.6323L62.8058 14.8867L58.9793 8.62337H55.757V22.7209H58.9793V14.5242L62.6246 20.5056H62.9871L66.6323 14.5242V22.7209H69.8546V8.62337ZM81.0181 15.4103C81.7834 14.7457 82.2466 13.8193 82.2466 12.6513C82.2466 10.2144 80.2528 8.62337 77.7958 8.62337H72.2776V22.7209H78.1986C80.716 22.7209 82.7501 21.0897 82.7501 18.5924C82.7501 17.1625 82.0654 16.0749 81.0181 15.4103ZM77.7958 11.6443C78.541 11.6443 79.0243 12.1679 79.0243 12.8929C79.0243 13.6179 78.5208 14.1416 77.7958 14.1416H75.4999V11.6443H77.7958ZM78.1986 19.7H75.4999V17.0014H78.1986C79.0042 17.0014 79.5278 17.5653 79.5278 18.3507C79.5278 19.1361 79.0042 19.7 78.1986 19.7ZM95.1248 8.62337H91.4595L88.7809 14.061L86.1024 8.62337H82.437L87.1698 17.3035V22.7209H90.3921V17.3035L95.1248 8.62337ZM103.742 22.7209H107.206L104.205 17.5451C105.756 16.7597 106.803 15.1888 106.803 13.4568C106.803 10.7783 104.648 8.62337 101.97 8.62337H96.3308V22.7209H99.5531V18.0889H101.084L103.742 22.7209ZM99.5531 11.6443H101.97C102.856 11.6443 103.581 12.4297 103.581 13.4568C103.581 14.4839 102.856 15.2694 101.97 15.2694H99.5531V11.6443Z" fill="white"/>
</svg>
