<svg width="26" height="23" viewBox="0 0 26 23" fill="none" xmlns="http://www.w3.org/2000/svg">
<path d="M8.54077 1.66344C7.85807 1.66344 7.30464 2.21688 7.30464 2.89957V3.32079C7.30464 3.77086 6.93979 4.13571 6.48972 4.13571C6.03966 4.13571 5.6748 3.77086 5.6748 3.3208V2.06786C5.6748 0.92581 6.60061 0 7.74266 0H12.43C13.5721 0 14.4979 0.92581 14.4979 2.06785V3.32079C14.4979 3.77086 14.133 4.13571 13.6829 4.13571C13.2329 4.13571 12.868 3.77086 12.868 3.32079V2.89957C12.868 2.21688 12.3146 1.66344 11.6319 1.66344H8.54077Z" fill="#3CB593"/>
<path fill-rule="evenodd" clip-rule="evenodd" d="M20.469 22.4631C21.8055 22.4631 23.0595 21.9435 24 20.9999C24.9402 20.0568 25.458 18.8007 25.458 17.4631C25.458 16.1255 24.9402 14.8694 24 13.9263C23.0595 12.9828 21.8055 12.4631 20.469 12.4631C17.706 12.4631 15.458 14.7061 15.458 17.4631C15.4581 20.2202 17.706 22.4631 20.469 22.4631ZM19.6583 17.7508L18.9951 17.0346C18.7281 16.7462 18.272 16.7462 18.005 17.0346C17.7656 17.2932 17.7656 17.6927 18.0051 17.9513L19.6583 19.7367L23.2529 15.8547C23.4924 15.5961 23.4924 15.1966 23.2529 14.938C22.9859 14.6496 22.5299 14.6496 22.2629 14.938L19.6583 17.7508Z" fill="#3CB593"/>
<path d="M20.1165 6.91016C20.1165 5.80559 19.2211 4.91016 18.1165 4.91016H2C0.895432 4.91016 0 5.80559 0 6.91016V8.52792L4.64388 11.9016H15.545L20.1165 8.53153V6.91016Z" fill="#3CB593"/>
<path d="M2 19.2012H14.2249C14.0782 18.6589 14 18.0886 14 17.5C14 16.0644 14.4654 14.7376 15.2535 13.662H4.74998V15.2155C4.74998 15.6656 4.38513 16.0305 3.93506 16.0305C3.485 16.0305 3.12015 15.6656 3.12015 15.2155V12.9335L0 10.6667V17.2012C0 18.3057 0.895432 19.2012 2 19.2012Z" fill="#3CB593"/>
</svg>
