<svg width="15" height="15" viewBox="0 0 15 15" fill="none" xmlns="http://www.w3.org/2000/svg">
<path d="M5.37638 2.54165C5.37638 2.05715 5.76914 1.66439 6.25364 1.66439H8.44734C8.93184 1.66439 9.3246 2.05715 9.3246 2.54165V2.84058C9.3246 3.15998 9.58353 3.41891 9.90293 3.41891C10.2223 3.41891 10.4813 3.15998 10.4813 2.84058V1.9514C10.4813 1.14091 9.82423 0.483887 9.01374 0.483887H5.68724C4.87676 0.483887 4.21973 1.14091 4.21973 1.9514V2.84058C4.21973 3.15998 4.47865 3.41891 4.79805 3.41891C5.11746 3.41891 5.37638 3.15998 5.37638 2.84058V2.54165Z" fill="#2697FF"/>
<path d="M14.4696 10.9583V8.06398L12.3089 9.65684V11.2824C12.3089 11.6018 12.05 11.8607 11.7306 11.8607C11.4112 11.8607 11.1522 11.6018 11.1522 11.2824V10.1799H3.56431V11.2824C3.56431 11.6018 3.30539 11.8607 2.98598 11.8607C2.66658 11.8607 2.40766 11.6018 2.40766 11.2824V9.66284L0.193359 8.0542V12.6647C0.193359 13.4634 0.840852 14.1109 1.63957 14.1109H13.0234C13.8221 14.1109 14.4696 13.4634 14.4696 12.6647V10.9583Z" fill="#2697FF"/>
<path d="M14.4696 5.41497C14.4696 4.61624 13.8221 3.96875 13.0234 3.96875H1.63958C0.840853 3.96875 0.193359 4.61624 0.193359 5.41497V6.5362L3.48902 8.93044H11.2253L14.4696 6.53876V5.41497Z" fill="#2697FF"/>
</svg>
