<svg width="19" height="27" viewBox="0 0 19 27" fill="none" xmlns="http://www.w3.org/2000/svg">
<path d="M17.5459 0H1.45408C0.651041 0 0 0.671574 0 1.49994V25.5001C0 26.3284 0.651041 27 1.45408 27H5.08929V20.9991C5.08929 20.1708 5.74033 19.4992 6.54337 19.4992H12.4566C13.2597 19.4992 13.9107 20.1708 13.9107 20.9991V27H19V1.49994C19 0.671574 18.349 0 17.5459 0ZM11.4872 14.9994H7.51275C6.70971 14.9994 6.05867 14.3278 6.05867 13.4995C6.05867 12.6711 6.70971 11.9995 7.51275 11.9995H11.4872C12.2903 11.9995 12.9413 12.6711 12.9413 13.4995C12.9413 14.3278 12.2903 14.9994 11.4872 14.9994ZM11.4872 8.99964H7.51275C6.70971 8.99964 6.05867 8.32806 6.05867 7.4997C6.05867 6.67133 6.70971 5.99976 7.51275 5.99976H11.4872C12.2903 5.99976 12.9413 6.67133 12.9413 7.4997C12.9413 8.32806 12.2903 8.99964 11.4872 8.99964Z" fill="#3E3C99"/>
<path d="M7.86133 22.2749H11.1372V26.9999H7.86133V22.2749Z" fill="#3E3C99"/>
</svg>
