<svg width="22" height="22" viewBox="0 0 22 22" fill="none" xmlns="http://www.w3.org/2000/svg">
<path fill-rule="evenodd" clip-rule="evenodd" d="M21.7554 20.3447L19.5995 17.8595C21.1534 15.9156 22 13.5123 22 11C22 4.9346 17.0655 0 11 0C4.93453 0 0 4.9346 0 11C0 17.0654 4.9346 22 11 22H21C21.3916 22 21.7472 21.7714 21.9097 21.4152C22.0723 21.0589 22.012 20.6406 21.7554 20.3447ZM5.5 13.7498C5.5 13.2435 5.91041 12.8331 6.41667 12.8331H11.9167C12.4229 12.8331 12.8333 13.2435 12.8333 13.7498C12.8333 14.2561 12.4229 14.6665 11.9167 14.6665H6.41667C5.91041 14.6665 5.5 14.2561 5.5 13.7498ZM6.41667 9.16663C5.91041 9.16663 5.5 9.57703 5.5 10.0833C5.5 10.5896 5.9104 11 6.41667 11H15.5833C16.0896 11 16.5 10.5896 16.5 10.0833C16.5 9.57703 16.0896 9.16663 15.5833 9.16663H6.41667Z" fill="#3E3C99"/>
</svg>
