<svg width="22" height="22" viewBox="0 0 22 22" fill="none" xmlns="http://www.w3.org/2000/svg">
<path fill-rule="evenodd" clip-rule="evenodd" d="M11 22C17.075 22 22 17.075 22 11C22 4.92496 17.075 0 11 0C4.92496 0 0 4.92496 0 11C0 17.075 4.92496 22 11 22ZM15.8341 8.63269C16.2626 8.13284 16.2047 7.38032 15.7048 6.95189C15.205 6.52345 14.4525 6.58134 14.024 7.08118L10.1475 11.6038L8.70055 10.1569C8.23504 9.6914 7.4803 9.6914 7.01478 10.1569C6.54927 10.6224 6.54927 11.3772 7.01478 11.8427L10.2821 15.11L15.8341 8.63269Z" fill="#A153D1"/>
</svg>
