<svg width="17" height="14" viewBox="0 0 17 14" fill="none" xmlns="http://www.w3.org/2000/svg">
<path d="M5.75166 10.6017C5.75166 12.0159 4.61999 13.1484 3.24097 13.1484C1.86195 13.1484 0.730292 12.0159 0.730292 10.6017C0.730292 9.18757 1.86195 8.055 3.24097 8.055C4.61999 8.055 5.75166 9.18757 5.75166 10.6017Z" stroke="#706F91" stroke-width="1.46058"/>
<path d="M16.1223 10.6017C16.1223 12.0159 14.9906 13.1484 13.6116 13.1484C12.2326 13.1484 11.1009 12.0159 11.1009 10.6017C11.1009 9.18757 12.2326 8.055 13.6116 8.055C14.9906 8.055 16.1223 9.18757 16.1223 10.6017Z" stroke="#706F91" stroke-width="1.46058"/>
<path d="M10.8337 11.0698L10.7224 3.05309C10.7072 1.95195 11.5461 1.02652 12.6435 0.934056V0.934056C13.7379 0.841842 14.7181 1.60953 14.8908 2.69415L15.9264 9.19727" stroke="#706F91" stroke-width="1.46058"/>
<path d="M5.74092 9.6654L6.06282 3.06416C6.11631 1.96734 5.2916 1.02515 4.19735 0.932947V0.932947C3.11664 0.841886 2.15375 1.61271 2.00605 2.68715L1.11112 9.19727" stroke="#706F91" stroke-width="1.46058"/>
<path d="M6.15869 8.96295C6.15869 8.96295 7.5324 8.63525 8.42737 8.63525C9.32234 8.63525 10.6961 8.96295 10.6961 8.96295" stroke="#706F91" stroke-width="1.46058"/>
<path d="M6.15869 4.37506C6.15869 4.37506 7.5324 4.04736 8.42737 4.04736C9.32234 4.04736 10.6961 4.37506 10.6961 4.37506" stroke="#706F91" stroke-width="1.46058"/>
</svg>
