<svg width="16" height="17" viewBox="0 0 16 17" fill="none" xmlns="http://www.w3.org/2000/svg">
<path d="M11.9946 5.27603C11.9946 5.7899 11.7566 6.50004 11.3082 7.34076C10.8705 8.16119 10.2783 9.02273 9.67278 9.81554C9.06933 10.6057 8.46411 11.3127 8.00887 11.8231C7.92791 11.9138 7.8518 11.9982 7.78141 12.0756C7.71102 11.9982 7.6349 11.9138 7.55394 11.8231C7.0987 11.3127 6.49349 10.6057 5.89003 9.81554C5.28454 9.02273 4.69232 8.16119 4.25466 7.34076C3.80617 6.50004 3.56818 5.7899 3.56818 5.27603C3.56818 2.8692 5.47034 0.947089 7.78141 0.947089C10.0925 0.947089 11.9946 2.8692 11.9946 5.27603Z" stroke="#706F91" stroke-width="1.46058"/>
<path d="M11.1117 10.7954C13.1267 11.231 14.4823 12.0452 14.4823 12.9776C14.4823 14.369 11.4642 15.4969 7.74116 15.4969C4.01812 15.4969 1 14.369 1 12.9776C1 12.1163 2.15666 11.3559 3.92117 10.9016" stroke="#706F91" stroke-width="1.46058" stroke-linecap="round"/>
<path d="M9.29946 4.95759C9.29946 5.71583 8.64952 6.38216 7.7827 6.38216C6.91588 6.38216 6.26594 5.71583 6.26594 4.95759C6.26594 4.19936 6.91588 3.53303 7.7827 3.53303C8.64952 3.53303 9.29946 4.19936 9.29946 4.95759Z" stroke="#706F91" stroke-width="1.46058"/>
</svg>
