<svg width="25" height="29" viewBox="0 0 25 29" fill="none" xmlns="http://www.w3.org/2000/svg">
<path d="M0 1.46645C0 0.656554 0.656553 0 1.46645 0H23.5335C24.3434 0 25 0.656553 25 1.46645V20.3346C25 21.1677 24.5583 21.9383 23.8394 22.3593L13.6857 28.3056C12.9534 28.7345 12.0466 28.7345 11.3143 28.3056L1.16061 22.3593C0.441737 21.9383 0 21.1677 0 20.3346V1.46645Z" fill="#F0742F"/>
<path d="M7.42699 10.1237H2.90625V4.70264H22.1732V10.1237H17.4372L12.5936 13.6682L7.42699 10.1237Z" fill="#131F33"/>
<path d="M7.53516 19.5064V13.9811L12.4864 17.3171L17.5454 13.9811V19.5064L12.4864 22.9467L7.53516 19.5064Z" fill="#131F33"/>
<rect x="11.7344" y="3.66016" width="1.50691" height="1.87652" fill="#F0742F"/>
</svg>
