<svg width="24" height="24" viewBox="0 0 24 24" fill="none" xmlns="http://www.w3.org/2000/svg">
<g clip-path="url(#clip0_10529_45106)">
<path d="M12.0099 3C15.2494 3 18.4888 3 21.7282 3C22.6672 3 23.362 3.40708 23.794 4.24963C24.0475 4.7419 24.0475 5.28151 23.9348 5.81166C23.6907 6.97608 22.9864 7.86597 22.085 8.56652C20.5827 9.72147 19.0052 10.7628 17.4559 11.8421C16.1695 12.7414 14.9113 13.6881 13.5874 14.5306C13.193 14.7768 12.7893 14.9851 12.3198 15.0608C11.6249 15.1744 11.0334 14.8904 10.47 14.5496C9.39959 13.8964 8.41367 13.1201 7.3902 12.4101C5.60616 11.1699 3.82212 9.92975 2.05686 8.65172C1.27752 8.08371 0.657803 7.35476 0.263437 6.47434C-0.196657 5.47085 -0.0464218 4.50523 0.620245 3.64375C0.892545 3.28401 1.27752 3.10414 1.72823 3.03787C1.9348 3.00947 2.14137 3 2.35733 3C5.5686 3 8.78926 3 12.0099 3Z" fill="#FF7528"/>
<path d="M0.751953 21.4508C1.18388 21.0154 1.6158 20.5893 2.03834 20.1633C3.82238 18.3646 5.60641 16.5659 7.39045 14.7672C7.51252 14.6442 7.57824 14.6252 7.72848 14.7388C8.38576 15.2122 9.00547 15.7234 9.71909 16.102C10.5172 16.5281 11.3341 16.8783 12.2731 16.8026C13.0149 16.7363 13.6721 16.4334 14.3106 16.0926C15.0149 15.7139 15.6346 15.2027 16.2825 14.7388C16.4139 14.6442 16.489 14.6252 16.6205 14.7578C18.7801 16.9446 20.9491 19.122 23.1181 21.2994C23.2402 21.4224 23.259 21.4792 23.0994 21.5834C22.7801 21.8011 22.4421 21.9336 22.0571 21.9715C21.9538 21.981 21.8505 21.981 21.7566 21.981C15.259 21.981 8.76134 21.981 2.26369 21.981C1.69092 21.9999 1.18388 21.8579 0.751953 21.4508Z" fill="#FF7528"/>
<path d="M5.97258 13.4894C3.98197 15.4963 2.00075 17.4938 0.0195312 19.4819C0.0195312 16.0549 0.0195312 12.6184 0.0195312 9.19141C1.79418 10.7724 3.85052 11.9557 5.76601 13.3474C5.83174 13.3947 5.89747 13.442 5.97258 13.4894Z" fill="#FF7528"/>
<path d="M23.9815 19.4817C22.0097 17.4937 20.0285 15.4961 18.0566 13.5081C19.9909 12.0407 22.1505 10.8479 23.9815 9.20068C23.9815 12.6182 23.9815 16.0547 23.9815 19.4817Z" fill="#FF7528"/>
</g>
<defs>
<clipPath id="clip0_10529_45106">
<rect width="24" height="24" fill="white"/>
</clipPath>
</defs>
</svg>
