<svg width="20" height="23" viewBox="0 0 20 23" fill="none" xmlns="http://www.w3.org/2000/svg">
<g clip-path="url(#clip0)">
<path d="M6.26626 1.88462C6.26626 1.97064 6.26626 2.05667 6.26626 2.14269C6.26626 3.7771 6.27701 5.4115 6.25551 7.05667C6.25551 7.30398 6.33077 7.35774 6.55658 7.34699C6.97593 7.32548 7.39529 7.32548 7.81464 7.34699C8.0297 7.35774 8.09422 7.29323 8.09422 7.06742C8.08346 5.1857 8.09421 3.29323 8.08346 1.41151C8.08346 1.1857 8.15873 1.13194 8.35228 1.08892C9.40604 0.873871 10.4598 0.884623 11.5136 1.08892C11.6856 1.12118 11.7501 1.1857 11.7501 1.37925C11.7394 3.27172 11.7501 5.17495 11.7394 7.06742C11.7394 7.29323 11.7931 7.35774 12.0189 7.34699C12.4598 7.32548 12.8899 7.32548 13.3308 7.34699C13.5458 7.35774 13.5781 7.28247 13.5781 7.08892C13.5673 5.43301 13.5781 3.7771 13.5781 2.12118C13.5781 2.04591 13.5566 1.92763 13.5996 1.89538C13.6856 1.83086 13.7609 1.93839 13.8362 1.9814C15.9759 3.28247 17.2448 5.16419 17.6318 7.63731C17.6964 8.06742 17.7179 8.50828 17.6964 8.94914C17.6856 9.13193 17.7501 9.17494 17.9222 9.16419C18.2232 9.15344 18.5351 9.17495 18.8361 9.15344C19.0297 9.14269 19.105 9.1857 19.0942 9.40075C19.0727 9.84161 19.0727 10.2825 19.0942 10.7126C19.105 10.9384 19.0405 10.9921 18.8146 10.9921C16.0405 10.9814 13.277 10.9921 10.5028 10.9921C7.35228 10.9921 4.21249 10.9922 1.06196 11.0029C0.814645 11.0029 0.750129 10.9384 0.760881 10.6911C0.782387 10.261 0.782387 9.83086 0.760881 9.40075C0.750129 9.1857 0.825397 9.14269 1.01895 9.15344C1.30927 9.17495 1.58884 9.14269 1.87916 9.16419C2.09421 9.17494 2.16948 9.12118 2.15873 8.89538C2.11572 7.89538 2.28776 6.92763 2.63185 5.9814C3.28776 4.26097 4.40604 2.92763 5.98669 1.9814C6.0512 1.93839 6.12647 1.86312 6.26626 1.88462Z" fill="#FFBB54"/>
<path d="M9.93299 12.8197C12.4384 12.8197 14.933 12.8197 17.4384 12.8197C17.6427 12.8197 17.7072 12.8735 17.6964 13.0778C17.6642 13.5402 17.7287 14.0025 17.5997 14.4649C17.3308 15.3681 16.7502 15.9918 15.8685 16.3143C15.6964 16.3789 15.5997 16.4649 15.5459 16.6477C15.1158 18.1316 14.5136 19.5294 13.5782 20.766C13.2018 21.2713 12.7609 21.7122 12.2556 22.0885C10.7072 23.2176 8.98675 23.1853 7.47062 22.0025C6.32009 21.0993 5.57815 19.895 4.98675 18.5724C4.70718 17.938 4.45987 17.2928 4.28783 16.6154C4.24482 16.4756 4.1803 16.3896 4.01901 16.3359C2.84697 15.9273 2.14804 14.938 2.14804 13.6907C2.14804 13.4111 2.02976 13.0348 2.20181 12.8735C2.35234 12.7337 2.72869 12.8305 2.99751 12.8305C5.30933 12.8197 7.62116 12.8197 9.93299 12.8197Z" fill="#FFBB54"/>
</g>
<defs>
<clipPath id="clip0">
<rect width="18.3333" height="21.9785" fill="white" transform="translate(0.75 0.916504)"/>
</clipPath>
</defs>
</svg>
