<svg width="22" height="22" viewBox="0 0 22 22" fill="none" xmlns="http://www.w3.org/2000/svg">
<path d="M19.5129 0.690186H2.48825C1.11594 0.690186 0 1.80576 0 3.17968V18.8264C0 20.1987 1.11594 21.3131 2.48825 21.3131H19.5129C20.8852 21.3131 21.9999 20.1987 21.9999 18.8264V3.17968C22 1.80576 20.8852 0.690186 19.5129 0.690186ZM14.2263 4.39255C15.5534 4.39255 16.6296 5.46887 16.6296 6.79588C16.6296 8.12289 15.5533 9.19921 14.2263 9.19921C12.8989 9.19921 11.823 8.12289 11.823 6.79588C11.823 5.46887 12.8989 4.39255 14.2263 4.39255ZM18.7326 19.013H10.9998H3.61148C2.94772 19.013 2.65211 18.5328 2.95133 17.9403L7.07589 9.77085C7.37474 9.17845 7.94432 9.12557 8.34767 9.65265L12.4951 15.0726C12.8984 15.5998 13.6034 15.6446 14.07 15.1723L15.0846 14.1449C15.5509 13.6726 16.2379 13.7311 16.6184 14.2747L19.2457 18.0276C19.6255 18.572 19.3963 19.013 18.7326 19.013Z" fill="#3E3C99"/>
</svg>
