<svg width="24" height="24" viewBox="0 0 24 24" fill="none" xmlns="http://www.w3.org/2000/svg">
<g clip-path="url(#clip0_5348_2128)">
<path d="M21.0138 16.6982L24.0004 13.7118L21.0138 10.7252L21.495 10.244C22.3276 9.41138 22.3276 8.05676 21.4952 7.22418C21.0918 6.82098 20.5555 6.59888 19.9851 6.59888C19.4149 6.59888 18.8786 6.82098 18.4754 7.22418L17.9942 7.70538L15.0076 4.71875L14.1263 5.60022V6.99329C15.6852 7.36481 16.8481 8.76941 16.8481 10.4404C16.8481 12.1116 15.6852 13.5162 14.1263 13.8876V18.2072H11.5408L11.0254 18.7227L15.0076 22.7047L17.9942 19.718L18.4089 20.1329C19.2415 20.9655 20.5961 20.9655 21.4287 20.1329C22.2613 19.3004 22.2613 17.9457 21.4287 17.1132L21.0138 16.6982Z" fill="#2697FF"/>
<path d="M12.718 16.7994V12.5757H13.3044C14.482 12.5757 15.4398 11.6179 15.4398 10.4403C15.4398 9.26294 14.482 8.30512 13.3044 8.30512H12.718V4.08142H8.49426V3.401C8.49426 2.22345 7.53644 1.26562 6.35889 1.26562C5.18152 1.26562 4.22369 2.22345 4.22369 3.401V4.08142H0V8.30512H0.58667C1.61975 8.30512 2.48364 9.04248 2.67993 10.0186C2.76508 10.1376 2.8158 10.283 2.8158 10.4403C2.8158 10.5976 2.76508 10.743 2.67993 10.8622C2.48364 11.8381 1.61975 12.5757 0.58667 12.5757H0V16.7994H4.22369V16.1188C4.22369 14.9414 5.18152 13.9836 6.35889 13.9836C7.53644 13.9836 8.49426 14.9414 8.49426 16.1188V16.7994H12.718Z" fill="#2697FF"/>
</g>
<defs>
<clipPath id="clip0_5348_2128">
<rect width="24" height="24" fill="white"/>
</clipPath>
</defs>
</svg>
