<svg width="13" height="13" viewBox="0 0 13 13" fill="none" xmlns="http://www.w3.org/2000/svg">
<path fill-rule="evenodd" clip-rule="evenodd" d="M12.6818 11.1455L9.85762 8.32133C9.84261 8.30632 9.82501 8.29583 9.80932 8.28186C10.365 7.43891 10.6894 6.42986 10.6894 5.34473C10.6894 2.3929 8.29646 0 5.34468 0C2.3929 0 0 2.3929 0 5.34468C0 8.2964 2.39285 10.6894 5.34463 10.6894C6.42981 10.6894 7.4388 10.365 8.28176 9.80932C8.29573 9.82495 8.30617 9.84256 8.32118 9.85757L11.1454 12.6818C11.5697 13.106 12.2575 13.106 12.6818 12.6818C13.106 12.2575 13.106 11.5697 12.6818 11.1455ZM5.34468 8.83653C3.41613 8.83653 1.85278 7.27318 1.85278 5.34468C1.85278 3.41613 3.41618 1.85278 5.34468 1.85278C7.27313 1.85278 8.83653 3.41618 8.83653 5.34468C8.83653 7.27318 7.27313 8.83653 5.34468 8.83653Z" fill="#706F91"/>
</svg>
