<svg width="16" height="14" viewBox="0 0 16 14" fill="none" xmlns="http://www.w3.org/2000/svg">
<path d="M6.66667 3.66686V0.832196C6.66667 0.631529 6.546 0.450196 6.36133 0.371529C6.17733 0.293529 5.962 0.332862 5.81867 0.473529L0.152 5.97353C0.0546667 6.06753 0 6.19686 0 6.3322C0 6.46753 0.0546667 6.59686 0.152 6.69086L5.81867 12.1909C5.96333 12.3309 6.178 12.3702 6.36133 12.2929C6.546 12.2142 6.66667 12.0329 6.66667 11.8322V8.99886H7.612C10.7027 8.99886 13.552 10.6789 15.0473 13.3802L15.0613 13.4055C15.1507 13.5682 15.32 13.6655 15.5 13.6655C15.5413 13.6655 15.5827 13.6609 15.624 13.6502C15.8453 13.5935 16 13.3942 16 13.1655C16 7.98286 11.8287 3.7562 6.66667 3.66686Z" fill="#272946"/>
</svg>
