<svg width="15" height="15" viewBox="0 0 15 15" fill="none" xmlns="http://www.w3.org/2000/svg">
<path d="M6.84328 12.7854L7.07237 13.3134L6.84328 12.7854L3.79967 14.1059C3.55521 14.2119 3.28662 14.0168 3.31195 13.7515L3.62729 10.4488C3.6707 9.99423 3.52375 9.54195 3.22142 9.19968L1.02502 6.71309C0.848607 6.51337 0.951201 6.19763 1.21131 6.13974L4.44981 5.41906C4.89559 5.31986 5.28032 5.04034 5.51241 4.64704L7.19857 1.78974C7.334 1.56025 7.666 1.56025 7.80143 1.78974L9.48759 4.64704C9.71968 5.04034 10.1044 5.31986 10.5502 5.41906L13.7887 6.13974C14.0488 6.19763 14.1514 6.51337 13.975 6.71309L11.7786 9.19968C11.4763 9.54195 11.3293 9.99423 11.3727 10.4488L11.6881 13.7515C11.7134 14.0168 11.4448 14.2119 11.2003 14.1059L8.15672 12.7854C7.73777 12.6036 7.26223 12.6036 6.84328 12.7854Z" stroke="#5B6DB6" stroke-width="1.3"/>
</svg>
