<svg width="30" height="22" viewBox="0 0 30 22" fill="none" xmlns="http://www.w3.org/2000/svg">
<path d="M28.6948 12.2731C27.8248 11.1846 26.7131 10.4791 25.3587 10.1561C25.7861 9.51028 25.9992 8.7915 25.9992 7.99987C25.9992 6.89565 25.6085 5.95303 24.8275 5.1717C24.0464 4.39063 23.1037 3.99994 21.9995 3.99994C21.0099 3.99994 20.1454 4.32288 19.406 4.96877C18.7917 3.4687 17.8096 2.26564 16.4608 1.35953C15.112 0.453139 13.6249 0 11.9998 0C9.79158 0 7.90607 0.781446 6.34356 2.34395C4.78095 3.90608 3.99988 5.7917 3.99988 8.00004C3.99988 8.13543 4.01034 8.35943 4.03113 8.67181C2.80202 9.24475 1.82295 10.1041 1.09361 11.2498C0.364536 12.3958 0 13.6456 0 15C0 16.9272 0.685017 18.5753 2.05467 19.945C3.42437 21.3152 5.07286 21.9999 6.9999 21.9999H24.0001C25.656 21.9999 27.07 21.4137 28.2421 20.2421C29.4139 19.0704 29.9999 17.6564 29.9999 15.9999C29.9998 14.604 29.5648 13.362 28.6948 12.2731ZM19.8511 11.8515C19.7518 11.9502 19.6349 11.9996 19.4997 11.9996H15.9998V17.4998C15.9998 17.635 15.9503 17.7523 15.8514 17.8512C15.7522 17.9504 15.6353 17.9995 15.5 17.9995H12.4996C12.3642 17.9995 12.247 17.9504 12.1481 17.8512C12.0493 17.7523 11.9997 17.635 11.9997 17.4998V11.9996H8.49964C8.35396 11.9996 8.23405 11.9529 8.14047 11.8594C8.04672 11.7656 7.99993 11.6457 7.99993 11.5C7.99993 11.3749 8.05192 11.2498 8.15601 11.1249L13.6404 5.64071C13.7341 5.5469 13.854 5.50006 13.9998 5.50006C14.1457 5.50006 14.2655 5.5469 14.3591 5.64071L19.8592 11.1405C19.953 11.2342 19.9994 11.354 19.9994 11.5001C19.9993 11.6352 19.9499 11.7528 19.8511 11.8515Z" fill="#3E3C99"/>
</svg>
