<svg width="11" height="10" viewBox="0 0 11 10" fill="none" xmlns="http://www.w3.org/2000/svg">
<path fill-rule="evenodd" clip-rule="evenodd" d="M0.224606 7.21279L4.22057 0.714297C4.81169 -0.247022 6.21271 -0.235864 6.78844 0.734748L10.6431 7.23324C11.2362 8.23314 10.5156 9.49849 9.35303 9.49849H1.50237C0.329119 9.49849 -0.389944 8.21221 0.224606 7.21279ZM5.52218 3.11901C5.8026 3.11901 6.02993 3.34634 6.02993 3.62676V5.67328C6.02993 5.9537 5.8026 6.18103 5.52218 6.18103C5.24175 6.18103 5.01442 5.9537 5.01442 5.67328V3.62676C5.01442 3.34634 5.24175 3.11901 5.52218 3.11901ZM6.06345 7.56906C6.06345 7.86818 5.82096 8.11066 5.52185 8.11066C5.22273 8.11066 4.98024 7.86818 4.98024 7.56906C4.98024 7.26994 5.22273 7.02746 5.52185 7.02746C5.82096 7.02746 6.06345 7.26994 6.06345 7.56906Z" fill="#FF7528"/>
</svg>
